<svg id="圖層_1" data-name="圖層 1" xmlns="http://www.w3.org/2000/svg" viewBox="0 0 114.3 146.9"><title>profile</title><path d="M14.8,115.3C2.7,101.8-1,67.3.5,53.7S13.9,25.6,22.3,18.8C29,13.4,38.1,11.6,41.5,2c2.4-.6,5.1.5,7,2.8A5.9,5.9,0,0,0,49.9,0a17.9,17.9,0,0,1,7.2,2.6C56.4,1.5,58,.7,59,1.2A310.9,310.9,0,0,1,92,18.9c5.2,3.2,10.5,6.7,14.5,12.3,6.5,9.3,8.4,22.8,7.2,34.7S102.9,94.3,99,104.7" fill="#e7f94d"/><path d="M15.6,75c-2,11.6-4,23.5-2.6,35.2s6.6,23.5,16.4,30.2c11.4,7.6,27.2,6.8,39-.3s19.8-19.2,23.9-32.3,4.8-27,4.6-40.7" fill="#fff"/><path d="M96.9,67.7A83.8,83.8,0,0,0,94.8,49c-.5-2.5-1.5-5.3-3.8-6.4s-5.1.2-7.5,1.3c-14.3,6.5-30.7,7-46.4,5.9-5.4-.4-11.7-.7-15.4,3.4-1.8,1.9-2.7,4.6-3.3,7.2A132,132,0,0,0,15,77" fill="#fff"/><path d="M14.7,74.7c-4,23.2-7.6,57.2,18.8,69.1,23.4,10.4,47.1-6.7,56.7-27.6,7-15.4,7.9-32.5,7.7-49.1-.1-1.3-2.1-1.3-2,0,.4,28.9-5.9,70.4-40.6,77-15.7,2.9-30.2-4.3-37-18.7s-4.5-33.7-1.7-50.1c.2-1.3-1.7-1.8-1.9-.6Z" fill="#fc00f6"/><path d="M97.9,67.7a87.1,87.1,0,0,0-2.1-19c-.7-2.7-1.7-5.8-4.5-7-4.5-1.9-10.5,2.4-14.6,3.7A79.1,79.1,0,0,1,57.3,49a141.2,141.2,0,0,1-18.4-.1c-4.5-.3-9.3-.9-13.7.8s-5.6,3.9-6.9,7.3c-2.4,6.2-3.3,13.2-4.2,19.7-.2,1.3,1.7,1.8,1.9.6a143.2,143.2,0,0,1,2.8-14.8c1.7-6.4,4.2-11.2,11.3-11.8s17,.8,25.5.4,17-1.8,25-4.9c1.9-.7,4.2-2.2,6.1-2.6,6.3-1,6.8,3.6,7.6,7.5a93.3,93.3,0,0,1,1.6,16.6,1,1,0,0,0,2,0Z" fill="#fc00f6"/><path d="M98.4,84.6c5.8-2.2,10.1,3.8,8.6,9.1s-6.2,7.7-10.9,9.1c-1.2.4-.7,2.3.5,2,6.5-2,13.1-6.6,12.7-14.1-.2-5.8-5.9-10.1-11.4-8-1.2.5-.7,2.4.5,1.9Z" fill="#fc00f6"/><path d="M26.1,72.2a22.9,22.9,0,0,1,18,7c.9,1,2.3-.4,1.4-1.4a25.2,25.2,0,0,0-19.4-7.6,1,1,0,0,0,0,2Z" fill="#fc00f6"/><path d="M55.7,80.6a139.9,139.9,0,0,1-5.1,31.6,1,1,0,1,0,1.9.5,139.7,139.7,0,0,0,5.2-32.1,1,1,0,0,0-2,0Z" fill="#fc00f6"/><path d="M19.9,84a65.4,65.4,0,0,1,15.9-2c3.9,0,7.5-.7,8.9,4.6a6.7,6.7,0,0,1-2.9,7.8c-4.5,2.8-11.5,3.5-16.8,3.3-9.4-.5-8.2-8.5-5.8-15a1,1,0,0,0-1.9-.6c-2,5.5-3.9,14.4,3.2,17.1,3.6,1.4,8.5.3,12.1-.2s7.9-.7,10.9-2.7S48.6,85,45.2,81.6,37,79.9,34,80a79,79,0,0,0-14.6,2c-1.3.3-.7,2.3.5,2Z" fill="#fc00f6"/><path d="M67.8,93.5c-.1-2.4-.6-5.4,0-7.7a2.9,2.9,0,0,1,2-3.5,3.4,3.4,0,0,1,3.8-1.8c3.9-1,9.5-.7,13.5-.5s5.8,3.1,4.7,6.5-6.7,4-9.7,4.6a47.8,47.8,0,0,1-15.1.8c-1.3-.1-1.3,1.9,0,2a45,45,0,0,0,13.7-.5c3.3-.6,8.3-.9,11-3.1s3.3-9,0-11.3-6-1-8.4-.9c-4.4,0-9.4-.3-13.6.7-5.9,1.3-4.2,10-3.9,14.7.1,1.2,2.1,1.2,2,0Z" fill="#fc00f6"/><path d="M47.8,87.8a47.3,47.3,0,0,1,16.3-2.2,1,1,0,0,0,0-2,46.1,46.1,0,0,0-16.9,2.3,1,1,0,0,0,.6,1.9Z" fill="#fc00f6"/><path d="M30.6,89.7h.1l-.4-.2h0l-.2-.4a.7.7,0,0,1,.2-.6H31l-.2-.3-.3,1.4a.8.8,0,0,1,1.2.2l.4-1.7a3.3,3.3,0,0,1-2.4,0L29.4,90l2-.2c.5-.1,1-.4,1-1s-.5-1.1-1-1l-2,.2a1,1,0,0,0-.3,2,6.3,6.3,0,0,0,3.6.1,1.1,1.1,0,0,0,.4-1.7,2.9,2.9,0,0,0-3.6-.5.9.9,0,0,0-.4,1.3c.5.9,1.6,1.7,2.5.9a1.3,1.3,0,0,0-.4-2.3,1,1,0,0,0-.6,1.9Z" fill="#fc00f6"/><path d="M78.7,86.2l2-.5-.8-1.8-.4.2s.6.2.5.5l-.2.5h-.7l-.4-.3q-.2-1.1-.3-.6h.2l1.2,1.2s-.3-.1.1,0L79,83.9c-.1.2-.1.3-.3.2a1,1,0,1,0-.5,1.9,2.2,2.2,0,0,0,2.6-1.1,1,1,0,0,0-.9-1.5,1.9,1.9,0,0,0-2,1.5,1,1,0,0,0,1.2,1.2,1.8,1.8,0,0,0,1.3-1.4,1.2,1.2,0,0,0-1.6-1.4,1.4,1.4,0,0,0-.4,2.2,1.8,1.8,0,0,0,2.5.1,1,1,0,0,0-.7-1.8l-2.1.5c-1.2.3-.7,2.2.6,1.9Z" fill="#fc00f6"/><path d="M37.7,119.9a36.6,36.6,0,0,0,32.4-4.7c1-.7,0-2.5-1-1.7A34.8,34.8,0,0,1,38.3,118a1,1,0,0,0-.6,1.9Z" fill="#fc00f6"/><path d="M64.4,73.2a43.9,43.9,0,0,1,23.5-8,1,1,0,0,0,0-2,45.9,45.9,0,0,0-24.5,8.3c-1.1.7-.1,2.5,1,1.7Z" fill="#fc00f6"/><path d="M8.2,82.8C7,66.4,5.8,47.4,17.4,34.1c4.6-5.2,10.5-7.6,16.5-10.5a28.6,28.6,0,0,0,6.9-4.3c3.1-2.8,4-5.6,8.9-2.1a1.1,1.1,0,0,0,1.2-.2,6.3,6.3,0,0,0,1.9-4.2l-1,1a25.8,25.8,0,0,1,6.8,1.5.9.9,0,0,0,1.2-1l13.3,4,12.4,4.6c7.7,3.1,17.2,6,22.2,13.1,10.4,14.5,1,32.7-6.5,46a1,1,0,0,0,1.8,1c8-14.3,17.8-34.3,5.5-49.3-5.7-6.9-15.2-9.9-23.3-13-5.3-2.1-10.7-4-16.1-5.8-3.2-1.1-7.5-3.7-10.8-2.1a1.1,1.1,0,0,0-.5.9v.6l1.3-.9a26.5,26.5,0,0,0-7.3-1.6c-.6-.1-.9.5-1,1-.2,2.7-2.8,1-4.3.7a5.9,5.9,0,0,0-3.5.2c-.9.4-1.4,1.7-1.9,2.4a18.9,18.9,0,0,1-5.2,4.2c-6.7,4-14,5.9-19.4,11.8C4,45.8,4.9,65.5,6.2,82.8c.1,1.3,2.1,1.3,2,0Z" fill="#fc00f6"/><path d="M80.8,85.7a3.4,3.4,0,0,1,1.4-.9l-1.1-1.5c-.2.3-.1.1,0,.1s-.2,0-.1,0h-.1v1.2a.5.5,0,0,1-.6.2c-.1-.1-.2-.7-.2-.3s.5,1,1,1,.9-.5,1-1a1.6,1.6,0,0,0-2.9-.9.9.9,0,0,0,.2,1.2,2.1,2.1,0,0,0,3.3-.5,1.1,1.1,0,0,0-1.1-1.5,5.1,5.1,0,0,0-2.3,1.5,1,1,0,0,0,0,1.4.9.9,0,0,0,1.4,0Z" fill="#fc00f6"/><path d="M10,115.4c2.2-3.5,7.4-4.5,10-.7s1,6.3-1.2,9-7.2,5-10.4,1.5-1.9-8,.8-10.8c4.9-4.9,15-4.6,16.4,3.2s-5.8,11.3-12.4,9.9-6-11.1-2-15.1,14-2.9,15.3,4.3-7.5,12.9-13.4,9.6-3.9-19.8,4.7-14.9v-2.9c-5.3,2.8-7.7,8.2-9.8,13.5l3.3.5.8-7.2c.3-2-2.7-2.2-3.3-.4a20.3,20.3,0,0,0-1,8.1,1.7,1.7,0,0,0,3.4.5,27,27,0,0,0,1.7-8.9H9.5a36.9,36.9,0,0,1-.3,8.8c-.3,2.1,2.8,3.1,3.3.9l2.1-10.1-3.3-.5c-.6,4.1-.9,8.1-1.2,12.1-.1,2,2.8,2.2,3.4.5a119.1,119.1,0,0,0,3.2-13.1c.4-2.1-2.7-3-3.3-.9a68.2,68.2,0,0,0-1.8,14.2c-.1,2,2.7,2.2,3.3.5a81.6,81.6,0,0,0,3.4-12.9l-3.2-.9-2,12.8c-.3,2.1,2.8,3.1,3.2.9l3.1-13.5-3.3-.4-1.5,13c-.2,1.9,2.9,2.3,3.4.5l2.4-10-3.3-.4a34.7,34.7,0,0,1-.9,9.1c-.4,1.8,2.3,3.1,3.1,1.3a37.5,37.5,0,0,0,3.4-12.6H19.3l-.9,11.8c-.2,2,2.8,2.3,3.3.5l2.8-10.3-3.3-.4A34.6,34.6,0,0,1,21,124c-.3,2.1,2.7,3.1,3.3.9l1.8-7.7H22.8a17.3,17.3,0,0,1-.3,6.8l3.2.9,1.7-7.2H24.2a12.5,12.5,0,0,1-.1,4.3l3.1-.4v-1.4l-3.3-.9-.5,3.3c-.4,2.1,2.9,3,3.3.9l.5-3.3c.3-2.1-2.7-3-3.3-.9a5,5,0,0,0,.4,4c.6,1.2,2.9,1,3.1-.4a20.8,20.8,0,0,0,0-6.1c-.2-1.7-2.9-1.6-3.2,0L22.5,124c-.5,2.1,2.7,3,3.2.9a22.6,22.6,0,0,0,.4-8.6c-.2-1.7-2.9-1.5-3.3,0L21,124l3.3.9a37,37,0,0,0,.3-9.4c-.2-1.8-2.8-2.5-3.4-.5l-2.8,10.3,3.3.4,1-11.8c.2-2.2-3.2-2.2-3.4,0a34.5,34.5,0,0,1-2.9,10.9l3.1,1.3a41.9,41.9,0,0,0,1-10c-.1-1.9-2.9-2.4-3.3-.5l-2.5,10,3.3.4,1.5-13c.2-2-2.9-2.3-3.4-.5l-3,13.5,3.2.9,2-12.8c.4-2.1-2.8-3-3.2-.9a111.1,111.1,0,0,1-3.4,12.9l3.3.4a66.4,66.4,0,0,1,1.7-13.3l-3.3-.9a119.1,119.1,0,0,1-3.2,13.1l3.3.4c.3-4,.6-8,1.2-12.1.2-1.9-3-2.3-3.4-.4L9.2,123.4l3.3.9a44.8,44.8,0,0,0,.4-9.7c-.2-2.1-3.4-2.2-3.4,0a21.5,21.5,0,0,1-1.6,8l3.3.4a17.7,17.7,0,0,1,.9-7.2l-3.4-.5-.8,7.2c-.2,2.1,2.7,2.1,3.4.4,1.8-4.5,3.8-9.1,8.3-11.5a1.7,1.7,0,0,0,0-2.9C12,104.2,5,111.6,5.8,119.2c1,9.2,9.2,13.7,17.4,9.3s9.3-12.9,3.4-18.8-16.4-3.6-20.3,3.7-1.2,16.4,7.3,17.5,16.5-3.7,15.5-13-9.8-12-17.4-9-12,13.6-4.8,19.5,18-1.9,17.7-10.4S11.9,106.1,7,113.7c-1.1,1.8,1.8,3.5,3,1.7Z" fill="#231815"/><path d="M86.7,109.2c4.9-9,16.3,1,11.7,8.9-2.7,4.6-8.8,5.2-11.9.6s-1.8-9.8,2.1-12,6.1,0,7.8,2-.3,7-3.1,8.8-6.9,2.3-8.3-1.5c-.6-1.6-.1-3.3.3-4.8s1.3-4,2.6-5.1,5.3-.9,7.5.4c3.8,2.3,7.3,8.8,1.5,11.3s-13.2-3.9-8.3-8.8a11.2,11.2,0,0,1,5.2-2.9,10.1,10.1,0,0,1,2.5-.3c1.8-.1,2.6.8,2.3,2.6,1,4.5-2.4,8.5-6.9,9.4s-10.6-3.7-7.4-9.4c5.1-8.8,18.3-.9,12.6,7.5a6.3,6.3,0,0,1-4.1,3c-4.6.8-4.7-3.1-4.1-5.8s1.7-3.8.5-.6c.8-1.6.7-1.9-.3-.8s-.1,2.2-.2,3.2h3.4a6.3,6.3,0,0,1,1.7-5.2l-2.9-1.2a33.2,33.2,0,0,1,0,8.9l3.3.4a13.8,13.8,0,0,1,1.7-8.4l-3.1-.4a8.2,8.2,0,0,1-.1,6.7l3.1.9a12.3,12.3,0,0,1,1.3-7.5l-3.1-.4a8.9,8.9,0,0,1-.1,7h3.3a4.6,4.6,0,0,1,.9-4.6l-2.6-.3a4.4,4.4,0,0,1,.2,4.4h3.2v-3l-3.3-.5a4.6,4.6,0,0,1-.8,3.6c-1.2,1.9,1.8,3.6,2.9,1.7a8.9,8.9,0,0,0,1.3-5.3c-.1-1.8-2.9-2.4-3.4-.4a12.9,12.9,0,0,0,0,4.8c.3,1.8,2.7,1.3,3.2,0a7.5,7.5,0,0,0-.5-7,1.8,1.8,0,0,0-2.7-.4,8.7,8.7,0,0,0-1.8,7.9c.4,1.8,2.7,1.5,3.3,0a12.1,12.1,0,0,0,.1-8.8c-.5-1.2-2.4-1.8-3.1-.4a14.9,14.9,0,0,0-1.8,9.2c.2,1.4,2.4,2.6,3.2.8a11.6,11.6,0,0,0,.5-9.3c-.5-1.3-2.4-1.8-3.1-.4a16.4,16.4,0,0,0-2.2,10.1c.2,1.7,3.1,2.5,3.4.5a40.2,40.2,0,0,0,.1-9.8c-.1-1.3-1.8-2.4-2.9-1.2a9.7,9.7,0,0,0-2.7,7.6,1.7,1.7,0,0,0,3.4,0c.2-2,1.1-6.4-1.5-7.5s-4.1,1.9-4.6,3.8-.1,4.3,2.1,5,4.5-2,5-4.1-.1-4.3-2.2-5-4,1.2-4.9,3.2c-2.1,5-.7,12.5,6,12.2s10.6-6.8,9.6-12.6-6.7-9.6-12.4-8.8-11.6,8.9-8.8,15,12.1,6.4,17,2.8,8-11,3.1-15-12.4-.2-15.4,3.9c-4.2,5.9,1.6,12.4,7.6,13.6s11.9-3.8,10.4-10.2-8.5-10.9-14.5-9.3-8.8,11-6.5,16c6.2,13,30.1-7.2,12.3-14.4-7.7-3.1-13.4,4.8-12.6,12s8.2,12.2,14.8,8.8,8.3-12.5,3.6-18.2a9.9,9.9,0,0,0-16.4,1.4c-1,1.9,1.9,3.6,2.9,1.7Z" fill="#231815"/><path d="M13.7,84.7c-14.3-6.8-20.9,26.6-2.2,23.6,1.3-.2.8-2.1-.5-1.9-15.3,2.4-9.2-25.1,1.6-20,1.2.6,2.2-1.1,1.1-1.7Z" fill="#fc00f6"/></svg>