<svg id="圖層_1" data-name="圖層 1" xmlns="http://www.w3.org/2000/svg" viewBox="0 0 153.1 200.7"><title>profile</title><path d="M43.2,115.5c-5.2-5-13.3-5.3-20.2-7.8C7.8,102.3-.6,85.5,0,69.8s8.5-30.1,17.7-43c6.5-9.2,14.1-18.2,24.4-23C58.8-3.9,79.4.9,94.4,11.3S120,36.8,130.2,51.7c4.2,6.2,8.4,12.4,11,19.3,8.9,22.8-1.4,49.4-19.6,66.3C106.2,151.5,85.9,160,70,173.7c-9.3,8-19,18.5-31.3,17.3C28,190,20,179.3,20.1,168.9s6.4-20,14.8-26.5,18.4-10.6,28.4-14.6" fill="#e7f94d"/><path d="M109.5,85.2a54.3,54.3,0,0,1-16.8,43,29.6,29.6,0,0,1-11.2,7.2c-8.9,2.9-19.2-.7-25.9-7.1s-10.7-15.1-13.5-23.8c-3.8-11.8-5.8-25.1-.2-36.2S61.3,49.3,65,36.9c7.5,9.2,18.1,15.4,27.3,23s17.6,17.7,17.9,29.4" fill="#fff"/><path d="M108.5,85.2a53.7,53.7,0,0,1-17.7,43.4c-15.3,13.4-34,4.2-42.6-11.8-7.5-14.1-13-34.4-4.7-49.2,6.2-11.2,18.3-17.9,22.4-30.5l-1.6.5c14.2,16.8,43.5,26.6,44.9,51.7.1,1.3,2.1,1.3,2,0-1.5-26-30.9-35.8-45.5-53.1a1,1,0,0,0-1.7.4C59.9,49.1,47.5,55.9,41.4,67.2s-3.9,27.2.5,39.9S52.3,130,64,135s23.6.5,32.2-9a55.7,55.7,0,0,0,14.3-40.8c-.1-1.3-2.1-1.3-2,0Z" fill="#fc00f6"/><path d="M35.7,83c-7.5,3.2-12.3,11.8-9.5,19.8s11.2,11.6,19,10.4c1.2-.2.7-2.2-.5-2-7.1,1.2-15.1-2.9-16.9-10.2s2.7-13.6,9-16.3c1.1-.5.1-2.2-1.1-1.7Z" fill="#fc00f6"/><path d="M51.6,123.5c-5.5-4.9-12.6-5.4-19.3-7.6a33.1,33.1,0,0,1-18.5-15.8C4.7,83.5,9.3,64.5,17.9,48.8s20.5-32.5,38-37.6,36.9,2.1,50.7,13.4,24,26.5,33.7,41.3S154,97.7,148,115.4s-17.8,29.9-32.3,39.9-28.8,17.5-41.6,28.8c-7,6.2-14.9,14.1-24.8,14.6s-19.1-8.5-20.4-18.6c-3-23.7,24.6-35.7,42.3-42.7,1.2-.5.7-2.4-.5-1.9-16.9,6.7-37.1,15.1-42.8,34.2-4.2,14.2,5.2,31.8,21.4,31,8.2-.4,15.1-5.5,21.1-10.7,8.2-6.9,16.2-13.7,25.2-19.5,16.1-10.3,33.2-19.6,44.6-35.5,10.2-14.2,15.8-32.7,11.5-50-2.5-9.8-8.3-18.2-13.9-26.5a248.5,248.5,0,0,0-17.5-23.3C107.9,21.1,91.8,9.6,72.6,7.9S38.2,16.5,26.8,31.6,2.8,69.2,7.9,90.5C10,99,14.6,107,21.6,112.4a31.7,31.7,0,0,0,11.6,5.8c5.9,1.7,12.2,2.5,17,6.7,1,.8,2.4-.6,1.4-1.4Z" fill="#fc00f6"/><path d="M72.6,75.7A83.2,83.2,0,0,1,75,99c-.1,1.3,1.9,1.3,2,0a86.4,86.4,0,0,0-2.4-23.8c-.3-1.3-2.3-.7-2,.5Z" fill="#fc00f6"/><path d="M53,90.7a9.7,9.7,0,0,1,2.7-2.2c.5-.2,2.8-1.3,3.2-.5s-3.1,1.7-3.4,1.7a11.9,11.9,0,0,1-4.2.1L52,91l1-.7c1.3.2,1.8-1.7.5-1.9a2.7,2.7,0,0,0-3.4,2.1,1,1,0,0,0,.7,1.2,11.5,11.5,0,0,0,7.1-.7c1.4-.6,3.7-1.7,2.9-3.6s-2.3-1.7-3.5-1.5a9.8,9.8,0,0,0-5.7,3.3c-.9,1,.5,2.4,1.4,1.5Z" fill="#fc00f6"/><path d="M95.9,84.1a9.8,9.8,0,0,1-6.7-.9l.2,1.6a5.3,5.3,0,0,1,7.3-.8V82.6a3,3,0,0,1-2.2.8c-1.3-.1-1.3,1.9,0,2A4.5,4.5,0,0,0,98.1,84c.3-.4.4-1.1,0-1.4a7.3,7.3,0,0,0-10.1.8.9.9,0,0,0,.2,1.5,11.7,11.7,0,0,0,8.2,1.2c1.3-.3.7-2.2-.5-2Z" fill="#fc00f6"/><path d="M99,83.4h-.8a1.1,1.1,0,0,0-1.3.7,1.1,1.1,0,0,0,.7,1.2h.8a1.1,1.1,0,0,0,1.3-.7c.1-.5-.2-1.2-.7-1.2Z" fill="#fc00f6"/><path d="M48.7,75.5a37.5,37.5,0,0,1,16.4-6c1.3-.2,1.3-2.2,0-2a39,39,0,0,0-17.4,6.3c-1,.7,0,2.4,1,1.7Z" fill="#fc00f6"/><path d="M67.2,112.4a25.1,25.1,0,0,0,22.7-2.9c1-.7,0-2.4-1-1.7a23.2,23.2,0,0,1-21.2,2.7c-1.2-.4-1.7,1.5-.5,1.9Z" fill="#fc00f6"/><path d="M47.1,113.2l2-1.1-.7-1.8c-.2.8-.8,2.8-1.5,3.2l-3.1-1,1.7-1.1c5.2-.6,1.3,4.7.2,5.1a3.8,3.8,0,0,1-3.1-.5,3.1,3.1,0,0,1,1-5.8c3.5-.9,5.4,2.8,3.5,5.4-4,5.3-11.4-2.7-6.2-7.1,3.3-2.8,8.9-1.3,9.7,3.1s-3.7,7.6-7.7,6.4-5-7.4-1.8-10.1a7.5,7.5,0,0,1,9.8.9c2.8,3.2,1.7,8.5-1.7,10.8a9.4,9.4,0,0,1-11.3-1.4c-4.5-4.5.7-9.8,5.5-10.6s11.6,2.2,9,7.9S42,121,38.6,117.7c-7.2-7.1,11.3-19.5,14.2-7.4,1,4.1-2.3,7.5-6,8.6s-12.5-.4-9.2-6.5c2.1-4.1,7.1-7.8,11.6-4.9s2.8,10.3-2.5,11.7-9.8-2.8-9.8-7.6c0-8.1,12-5.4,9.4,2.6-.7,1.9,2.4,2.8,3,.8,2.4-7.3-5.5-15.5-12.5-10.1s-.9,16.6,6.6,17.6,14.9-7.3,10.5-14.4-15.7-4.2-19.3,3.2,6.7,12.8,13.5,10.4S59,110,52.5,104.2s-17.4.7-18.6,8.3c-1.7,9.9,11.2,12.2,17.7,8.2,8-5,3.7-15.5-4.9-16.4s-18.1,7.1-12,15.1c4.8,6.4,15.7,6.2,19.6-1a10.1,10.1,0,0,0-9.4-15.1c-7.4.3-11.8,9.2-6.8,15.1s15,2.6,15.7-4.8-8.5-12.5-14.7-7.8-2.2,15.8,6.1,14.5,8.2-12.1.7-13.3-11.4,8.8-4.1,12.1,13.1-5.9,6.7-10-11.2,7.2-4.3,8.4c3.8.7,6.5-3.1,7.2-6.3a1.7,1.7,0,0,0-.7-1.8c-2.8-1.3-6-.2-6.6,3s2.6,2.8,3,.8Z" fill="#231815"/><path d="M107.2,103.8c4.4-3.2,4.8,7-.8,3.7-2.4-1.3-2.4-4.6-.6-6.4,4.6-4.9,12.3,2.1,7.9,7.1s-11.2,2.2-9.5-3.9,10.8-10.1,12.7-3a7,7,0,0,1-5.1,8.1c-4.6.9-9.5-3.8-8.3-8.5s6.3-6.8,10.2-5.3c6.6,2.5,1.4,10.7-2.5,13.1s-8.6-.7-8.2-5.7,3.5-8.4,8.3-8.3,7.2,3.4,6.3,7.5a5.9,5.9,0,0,1-9.9,3.2c-3.4-3.1-1.7-7.7,2.5-8.7s7.4,3.9,5.3,7.9-9.7,5.1-9.5-.7,9.4-4.1,8,1.2-7.9,4.2-7.7-.7c.1-2.8,4.3-4.4,6.2-2.3s.1,5.8-2.6,6a4.3,4.3,0,0,1-3.8-6.6c2.6-3.8,11.5-1.9,7.1,3.6-1.3,1.7-4.6,2.2-6.5,1.2s-3.2-4.7-1.3-6.7a3.6,3.6,0,0,1,3.4-.9,3.5,3.5,0,0,1,1.7.6c2.5,1.8,1.5,3.7-3,5.5l1.1,2,1-4-1.1,1.1,1.3.6v-1.6c-1.7,3.8-6.6,1.2-5.7-2.5s5.2-4.5,8.4-3.7,6.4,4.4,3.4,7.9-7.1,3.3-10.2,2-2.5-2.5-2.1-4.8a8.8,8.8,0,0,1,1.7-4.5,7.7,7.7,0,0,1,8.2-3.4,5.6,5.6,0,0,1,3.6,8c-1.6,3-5.2,3.9-8.3,3.6s-2,2.9,0,3.1c4.7.5,9.7-1.6,11.4-6.2a8.7,8.7,0,0,0-4.5-11.1,10.7,10.7,0,0,0-12.2,3.2c-2.9,3.3-4.6,9.5-1.9,13.4s9.8,2.9,13.5,1.1,6.6-6.5,4.8-10.7c-3.7-8.4-20.8-5.8-19.1,4.4a6.4,6.4,0,0,0,9.1,4.5c4.5-2.2,2.4-7.3-2.2-6.3a1.5,1.5,0,0,0-1.1,1.1l-1,3.9a1.5,1.5,0,0,0,1.1,1.9c3.5,1,7.9-2.4,6.1-6.2s-5.9-1.9-6.4,1.1,4.6,5.2,7,3,1.4-7.8-2-9.5c-9.3-4.5-14.4,10.2-5.1,13.3,4.2,1.4,9.7-.8,11-5.3s-3-8.5-7.6-8.1-8.3,4.4-7.5,8.9a7.7,7.7,0,0,0,9.5,5.9c9.1-2.6,3.3-17.2-5.5-11.7s4.1,18.1,10,8.8-8.8-15.4-12.7-7.1c-1.6,3.5,0,8.2,3.5,9.7s9.4-.8,11.4-4.8a8.4,8.4,0,0,0-13.5-9.7c-7.2,7.2,4.1,17.8,11.8,12.8s3.1-17.8-6.3-17.3-15.1,14.2-7.2,20,21.8-9.2,15.1-16.8S96.7,96.5,101,106.1s17.9,8.1,19.1-2.3c.5-4.2-2.1-8.7-6.6-9.3s-10.4,3.8-12,8c-4.3,10.7,11.5,15.3,15.9,5.7s-10.8-17-15.4-7.1c-1.8,3.9.5,9.1,4.9,10s8.3-2.6,7.5-6.7-5.7-5.5-8.8-3.3c-1.6,1.2,0,3.9,1.6,2.7Z" fill="#231815"/><path d="M56.2,90.1a.9.9,0,0,1,.8-.5l-.8-1.9a3.9,3.9,0,0,1-1.4.5l.9,1.2.3-.2-1-1.7c-.4.3-.4.7-.1,1.2l-.7.3h.2l-1-1.2a1.4,1.4,0,0,1-1.5,1l.8,1.5a4.2,4.2,0,0,1,5.1-1.1l.2-1.8-3.4.6c-1.3.2-.7,2.2.5,1.9l3.4-.6a1,1,0,0,0,.3-1.8A6.2,6.2,0,0,0,51,89.3c-.5.6.2,1.5.9,1.5a3.4,3.4,0,0,0,3.5-2.5,1.1,1.1,0,0,0-1-1.3,1.4,1.4,0,0,0-1.1,2.3c.8,1.3,2.3.5,3.1-.4s.1-2-.9-1.6a2.5,2.5,0,0,0-1.7,1.6,1.1,1.1,0,0,0,1,1.3,6.7,6.7,0,0,0,2.4-.7,1,1,0,0,0-.8-1.9,3.5,3.5,0,0,0-1.9,1.5c-.8,1,.9,2,1.7,1Z" fill="#fc00f6"/><path d="M92.4,85.3l1.2-.6c.9-.4.4-1.8-.5-1.8H90.9l.9,1.3a.9.9,0,0,1,1.4-.2V82.2a1.2,1.2,0,0,1-1,.2v2a6.5,6.5,0,0,1,3.1.5c1.1.5,1.6-1.2.8-1.8a1.5,1.5,0,0,0-2.2,1.7c.5,1.8,3.3,1,4.5.7a.9.9,0,0,0,.7-1.2,2.8,2.8,0,0,0-3.6-1.8,1,1,0,0,0,.6,1.9.9.9,0,0,1,1.1.4l.7-1.2-1.1.2h-.5c-.5,0-.7.3-.7.9H95l.8-1.8a7.6,7.6,0,0,0-3.6-.6,1,1,0,0,0,0,2,2.9,2.9,0,0,0,2-.5,1,1,0,0,0,0-1.7,2.9,2.9,0,0,0-4.3,1.3,1,1,0,0,0,1,1.3h2.2L92.6,83l-1.2.5c-1.2.6-.2,2.3,1,1.8Z" fill="#fc00f6"/></svg>