<?xml version="1.0" standalone="no"?>
<!DOCTYPE svg PUBLIC "-//W3C//DTD SVG 20010904//EN"
 "http://www.w3.org/TR/2001/REC-SVG-20010904/DTD/svg10.dtd">
<svg version="1.0" xmlns="http://www.w3.org/2000/svg"
 width="199.000000pt" height="199.000000pt" viewBox="0 0 199.000000 199.000000"
 preserveAspectRatio="xMidYMid meet">
<metadata>
Created by potrace 1.11, written by Peter Selinger 2001-2013
</metadata>
<g transform="translate(0.000000,199.000000) scale(0.100000,-0.100000)"
fill="#000000" stroke="none">
<path d="M862 1980 c-221 -31 -414 -128 -572 -289 -133 -133 -216 -283 -262
-468 -30 -124 -30 -332 0 -456 46 -188 130 -336 266 -473 137 -136 285 -220
473 -266 124 -30 332 -30 456 0 188 46 336 130 473 266 136 137 220 285 266
473 30 124 30 332 0 456 -75 302 -281 552 -559 678 -150 68 -380 102 -541 79z
m-259 -1086 c-282 -275 -249 -262 -300 -118 -25 72 -27 92 -27 219 0 127 2
147 27 220 40 114 99 209 181 290 85 85 171 139 280 176 l81 28 3 -287 2 -287
-247 -241z m615 790 c218 -72 391 -246 469 -469 25 -73 27 -93 27 -220 0 -127
-2 -147 -27 -220 -74 -213 -238 -384 -438 -459 -35 -13 -76 -26 -90 -29 l-26
-7 -7 478 c-3 262 -9 584 -12 715 -8 273 -18 252 104 211z m-355 -1161 c4
-130 5 -238 2 -241 -3 -3 -42 7 -87 22 -87 28 -168 71 -219 113 l-31 26 159
159 c87 87 160 158 164 158 3 0 9 -106 12 -237z"/>
</g>
</svg>
