<?xml version="1.0" encoding="iso-8859-1"?>
<!-- Generator: Adobe Illustrator 22.1.0, SVG Export Plug-In . SVG Version: 6.00 Build 0)  -->
<svg version="1.1" id="&#x5716;&#x5C64;_1" xmlns="http://www.w3.org/2000/svg" xmlns:xlink="http://www.w3.org/1999/xlink" x="0px"
	 y="0px" viewBox="0 0 336.934 255.213" style="enable-background:new 0 0 336.934 255.213;" xml:space="preserve">
<path style="fill:none;stroke:#F2F5F4;stroke-width:59.4151;stroke-miterlimit:10;" d="M29.417,256.792
	c0-80.108,62.557-145.048,139.726-145.048s139.726,64.94,139.726,145.048"/>
<g>
	<path style="fill:none;stroke:#29F3F8;stroke-width:59.4151;stroke-miterlimit:10;" d="M131.164,115.362
		c10.143-2.265,20.69-3.46,31.516-3.46c79.521,0,143.986,64.465,143.986,143.986"/>
</g>
<g>
	<path style="fill:none;stroke:#4D638D;stroke-width:59.4151;stroke-miterlimit:10;" d="M76.723,148.29
		c14.361-15.436,33.204-26.645,54.458-31.555"/>
</g>
<g>
	<path style="fill:#842EFF;" d="M165.365,46.062l1.213,12.202h8.325l1.297-12.108c-1.529,0.877-3.296,1.386-5.185,1.386
		C168.88,47.542,167.019,47.161,165.365,46.062z"/>
</g>
<line style="fill:none;stroke:#842EFF;stroke-width:3;stroke-miterlimit:10;" x1="170.782" y1="58.599" x2="170.782" y2="141.98"/>
<ellipse style="fill:#E7F94D;" cx="170.179" cy="22.03" rx="21.668" ry="22.012"/>
<g>
	
		<line style="fill:none;stroke:#040000;stroke-width:2.6409;stroke-miterlimit:10;" x1="166.376" y1="29.17" x2="166.376" y2="44.534"/>
	
		<line style="fill:none;stroke:#040000;stroke-width:2.6409;stroke-miterlimit:10;" x1="174.523" y1="29.17" x2="174.523" y2="44.534"/>
	
		<ellipse style="fill:none;stroke:#040000;stroke-width:2.6409;stroke-miterlimit:10;" cx="162.432" cy="28.794" rx="3.945" ry="4.152"/>
	
		<ellipse style="fill:none;stroke:#040000;stroke-width:2.6409;stroke-miterlimit:10;" cx="178.467" cy="28.794" rx="3.945" ry="4.152"/>
	
		<line style="fill:none;stroke:#040000;stroke-width:2.6409;stroke-miterlimit:10;" x1="166.298" y1="29.335" x2="174.424" y2="29.335"/>
</g>
</svg>
