<?xml version="1.0" encoding="utf-8"?>
<!-- Generator: Adobe Illustrator 23.0.1, SVG Export Plug-In . SVG Version: 6.00 Build 0)  -->
<svg version="1.1" id="Layer_1" xmlns="http://www.w3.org/2000/svg" xmlns:xlink="http://www.w3.org/1999/xlink" x="0px" y="0px"
	 viewBox="0 0 248.5 128.2" style="enable-background:new 0 0 248.5 128.2;" xml:space="preserve">
<style type="text/css">
	.st0{fill:#E7F94D;}
	.st1{fill:#F2F5F4;}
	.st2{fill:#F51FB3;}
</style>
<g id="圖層_1">
</g>
<g id="圖層_3">
</g>
<path class="st0" d="M216,69H32.5L0,128.2h248.5L216,69z M84.3,102.6l4.1-17.7H161l3.2,17.7H84.3z"/>
<g id="圖層_2">
	<g>
		<polygon class="st1" points="84.3,102.6 108,0 175.6,16.2 156.1,102.6 		"/>
	</g>
	<g>
		<g>
			<path class="st2" d="M134.3,69.4c-14,0-25.5-11.4-25.5-25.5s11.4-25.5,25.5-25.5s25.5,11.4,25.5,25.5S148.4,69.4,134.3,69.4z
				 M134.3,23c-11.5,0-20.9,9.4-20.9,20.9s9.4,20.9,20.9,20.9s20.9-9.4,20.9-20.9S145.8,23,134.3,23z"/>
		</g>
		<g>
			
				<rect x="131.9" y="20.9" transform="matrix(0.9765 -0.2153 0.2153 0.9765 -6.3116 29.9157)" class="st2" width="4.6" height="46"/>
		</g>
		<g>
			
				<rect x="116" y="52.1" transform="matrix(0.5618 -0.8273 0.8273 0.5618 10.8707 129.2788)" class="st2" width="23" height="4.6"/>
		</g>
	</g>
</g>
</svg>
