<?xml version="1.0" encoding="iso-8859-1"?>
<!-- Generator: Adobe Illustrator 23.0.1, SVG Export Plug-In . SVG Version: 6.00 Build 0)  -->
<svg version="1.1" xmlns="http://www.w3.org/2000/svg" xmlns:xlink="http://www.w3.org/1999/xlink" x="0px" y="0px"
	 viewBox="0 0 292.266 352.495" style="enable-background:new 0 0 292.266 352.495;" xml:space="preserve">
<g id="&#x5716;&#x5C64;_1">
</g>
<g id="&#x5716;&#x5C64;_3">
</g>
<g id="&#x5716;&#x5C64;_2">
	<g>
		<g>
			<rect x="101.68" y="1696.785" style="fill:#F8F9F9;" width="198.398" height="141.256"/>
			
				<rect x="147.216" y="1774.138" transform="matrix(0.6655 -0.7464 0.7464 0.6655 -1268.1097 787.2138)" style="fill:#F8F9F9;" width="194.063" height="68.625"/>
		</g>
		<rect x="591.19" y="1336.257" style="fill:#F8F9F9;" width="672.009" height="141.256"/>
	</g>
	
		<rect x="1066.913" y="2023.453" transform="matrix(0.7812 -0.6243 0.6243 0.7812 -1071.3523 1155.8007)" style="fill:#E7F94D;" width="92.727" height="165.839"/>
	<polygon style="fill:#E7F94D;" points="1033.38,2057.206 973.582,1990.868 964.964,1933.662 1008.256,1889.508 1047.896,1919.445 
		1072.907,1990.635 1080.703,2021.631 	"/>
	
		<rect x="1053.557" y="2020.879" transform="matrix(0.7812 -0.6243 0.6243 0.7812 -1072.6674 1146.8995)" style="fill:none;stroke:#842EFF;stroke-width:3;stroke-miterlimit:10;" width="92.727" height="165.839"/>
	<polygon style="fill:none;stroke:#842EFF;stroke-width:3;stroke-miterlimit:10;" points="1024.733,2057.087 963.04,1992.507 
		952.771,1935.574 994.768,1890.186 1035.257,1918.964 1062.317,1989.401 1071.006,2020.158 	"/>
	
		<rect x="908.101" y="1887.722" transform="matrix(0.7196 -0.6944 0.6944 0.7196 -1060.7539 1234.9208)" style="fill:#FFFFFF;" width="181.361" height="86.463"/>
	<polyline style="fill:#E7F94D;" points="1015.894,2037.342 984.155,1999.273 978.558,1973.538 993.43,1941.134 1002.679,1937.999 
		1012.116,1950.361 1007.518,1976.064 1016.955,1988.425 1053.371,1994.057 1065.212,2010.97 	"/>
	<g>
		<circle style="fill:none;stroke:#F81D1B;stroke-width:3.1431;stroke-miterlimit:10;" cx="1024.742" cy="1902.59" r="23.984"/>
		
			<line style="fill:none;stroke:#F81D1B;stroke-width:3.1431;stroke-miterlimit:10;" x1="1001.013" y1="1901.275" x2="1048.517" y2="1904.224"/>
		
			<line style="fill:none;stroke:#F81D1B;stroke-width:3.1431;stroke-miterlimit:10;" x1="1040.838" y1="1921.591" x2="1025.594" y2="1903.301"/>
	</g>
	<polyline style="fill:none;stroke:#842EFF;stroke-width:3;stroke-miterlimit:10;" points="1006.679,2037.737 973.852,2000.603 
		967.513,1975.04 981.441,1942.219 990.596,1938.819 1000.387,1950.902 996.534,1976.727 1006.324,1988.81 1042.888,1993.387 
		1055.213,2009.949 	"/>
	
		<rect x="-127.344" y="1620.217" transform="matrix(0.5363 0.844 -0.844 0.5363 1399.9106 858.0358)" style="fill:#E7F94D;" width="92.727" height="165.839"/>
	<polygon style="fill:#E7F94D;" points="-23.481,1629.011 48.921,1576.718 106.723,1574.322 145.949,1622.125 111.91,1658.304 
		38.437,1675.488 6.781,1679.895 	"/>
	
		<rect x="-123.343" y="1607.216" transform="matrix(0.5363 0.844 -0.844 0.5363 1390.7926 848.6315)" style="fill:none;stroke:#842EFF;stroke-width:3;stroke-miterlimit:10;" width="92.727" height="165.839"/>
	<polygon style="fill:none;stroke:#842EFF;stroke-width:3;stroke-miterlimit:10;" points="-22.43,1620.427 48.429,1566.061 
		106.138,1561.994 146.73,1608.642 113.752,1645.791 40.807,1665.093 9.292,1670.414 	"/>
	
		<rect x="15.087" y="1565.002" transform="matrix(0.6127 0.7903 -0.7903 0.6127 1312.001 539.3078)" style="fill:#FFFFFF;" width="181.361" height="86.463"/>
	<polyline style="fill:#E7F94D;" points="-1.846,1613.769 39.424,1586.322 65.613,1583.535 96.224,1601.816 98.342,1611.349 
		85.035,1619.397 59.978,1612.053 46.671,1620.101 37.142,1655.697 19.051,1665.644 	"/>
	<g>
		<circle style="fill:none;stroke:#F81D1B;stroke-width:3.1431;stroke-miterlimit:10;" cx="131.165" cy="1637.104" r="23.984"/>
		
			<line style="fill:none;stroke:#F81D1B;stroke-width:3.1431;stroke-miterlimit:10;" x1="135.032" y1="1613.655" x2="126.975" y2="1660.563"/>
		
			<line style="fill:none;stroke:#F81D1B;stroke-width:3.1431;stroke-miterlimit:10;" x1="110.538" y1="1651.056" x2="130.366" y2="1637.873"/>
	</g>
	<polyline style="fill:none;stroke:#842EFF;stroke-width:3;stroke-miterlimit:10;" points="-1.245,1604.566 39.214,1575.936 
		65.311,1572.392 96.438,1589.78 98.831,1599.248 85.762,1607.678 60.503,1601.061 47.435,1609.491 38.94,1645.348 21.145,1655.814 
			"/>
	<g>
		
			<rect x="38.06" y="171.58" transform="matrix(0.9104 0.4138 -0.4138 0.9104 112.8866 -12.1224)" style="fill:#E7F94D;" width="92.727" height="165.839"/>
		<polygon style="fill:#E7F94D;" points="92.078,161 124.144,77.643 171.246,44.053 230.218,62.657 221.478,111.557 
			169.332,166.094 145.227,187.082 		"/>
		
			<rect x="34.307" y="158.506" transform="matrix(0.9104 0.4138 -0.4138 0.9104 107.1397 -11.7412)" style="fill:none;stroke:#FC00F6;stroke-width:3;stroke-miterlimit:10;" width="92.727" height="165.839"/>
		<polygon style="fill:none;stroke:#FC00F6;stroke-width:3;stroke-miterlimit:10;" points="88.268,153.236 117.909,68.986 
			164.019,34.048 223.505,50.938 216.183,100.07 165.637,156.093 142.149,177.769 		"/>
		
			<rect x="98.294" y="29.746" transform="matrix(0.945 0.3272 -0.3272 0.945 34.274 -57.8078)" style="fill:#FFFFFF;" width="181.361" height="86.463"/>
		<polyline style="fill:#E7F94D;" points="101.55,138.607 118.794,92.139 138.338,74.486 173.847,71.274 181.166,77.74 
			175.135,92.074 150.548,100.867 144.517,115.201 157.74,149.596 148.955,168.279 		"/>
		<g>
			<circle style="fill:none;stroke:#F81D1B;stroke-width:3.1431;stroke-miterlimit:10;" cx="226.02" cy="83.28" r="23.984"/>
			
				<line style="fill:none;stroke:#F81D1B;stroke-width:3.1431;stroke-miterlimit:10;" x1="216.446" y1="61.528" x2="235.329" y2="105.217"/>
			
				<line style="fill:none;stroke:#F81D1B;stroke-width:3.1431;stroke-miterlimit:10;" x1="216.368" y1="106.235" x2="225.771" y2="84.361"/>
		</g>
		<polyline style="fill:none;stroke:#FC00F6;stroke-width:3;stroke-miterlimit:10;" points="96.473,130.201 112.745,83.384 
			131.917,65.327 167.351,61.376 174.803,67.688 169.072,82.145 144.674,91.448 138.943,105.905 152.88,140.017 144.487,158.879 		
			"/>
	</g>
	
		<rect x="1261.337" y="1675.245" transform="matrix(-0.5363 0.844 -0.844 -0.5363 3492.9656 1597.4191)" style="fill:#E7F94D;" width="92.727" height="165.839"/>
	<polygon style="fill:#E7F94D;" points="1250.201,1684.039 1177.799,1631.746 1119.997,1629.35 1080.772,1677.153 1114.81,1713.332 
		1188.283,1730.516 1219.939,1734.923 	"/>
	
		<rect x="1257.336" y="1662.244" transform="matrix(-0.5363 0.844 -0.844 -0.5363 3475.8472 1580.8217)" style="fill:none;stroke:#842EFF;stroke-width:3;stroke-miterlimit:10;" width="92.727" height="165.839"/>
	<polygon style="fill:none;stroke:#842EFF;stroke-width:3;stroke-miterlimit:10;" points="1249.15,1675.455 1178.291,1621.089 
		1120.583,1617.022 1079.991,1663.67 1112.968,1700.819 1185.913,1720.121 1217.429,1725.442 	"/>
	
		<rect x="1024.912" y="1610.738" transform="matrix(-0.6127 0.7903 -0.7903 -0.6127 3130.9092 1785.3733)" style="fill:#FFFFFF;" width="206.123" height="98.268"/>
	<polyline style="fill:#E7F94D;" points="1228.567,1668.797 1187.296,1641.35 1161.107,1638.563 1130.497,1656.844 
		1128.378,1666.377 1141.686,1674.426 1166.742,1667.081 1180.05,1675.129 1189.578,1710.725 1207.669,1720.672 	"/>
	<g>
		<circle style="fill:none;stroke:#F81D1B;stroke-width:3.5722;stroke-miterlimit:10;" cx="1099.108" cy="1692.684" r="27.258"/>
		
			<line style="fill:none;stroke:#F81D1B;stroke-width:3.5722;stroke-miterlimit:10;" x1="1094.714" y1="1666.033" x2="1103.871" y2="1719.347"/>
		
			<line style="fill:none;stroke:#F81D1B;stroke-width:3.5722;stroke-miterlimit:10;" x1="1122.552" y1="1708.541" x2="1100.017" y2="1693.559"/>
	</g>
	<polyline style="fill:none;stroke:#842EFF;stroke-width:3;stroke-miterlimit:10;" points="1227.966,1659.594 1187.506,1630.964 
		1161.409,1627.421 1130.282,1644.808 1127.889,1654.276 1140.958,1662.706 1166.217,1656.089 1179.286,1664.519 1187.78,1700.376 
		1205.576,1710.842 	"/>
</g>
</svg>
