<svg id="圖層_1" data-name="圖層 1" xmlns="http://www.w3.org/2000/svg" viewBox="0 0 157.8 167.9"><title>profile</title><path d="M121.5,12.7C115.4,2.8,102.4-1.4,90.9.4A41.3,41.3,0,0,0,76.4,5.6C63.7,13.2,56.1,27,49.7,40.4S37,67.9,25.4,77.2c-4.5,3.6-9.7,6.4-14.2,10.1S2.7,95.8,2,101.6c-1,8.9,5.9,16.9,13.8,21a41,41,0,0,0,32,2.1,41.1,41.1,0,0,0,23.4-21.8" fill="#e7f94d"/><path d="M102.1,106.3c-2.5,8.2-4.5,16.7-4,25.3s3.7,17.3,10.2,22.9c10.3,9,27.2,7.6,37.5-1.4s13.9-24.1,11-37.4c-1.5-7.3-4.7-14.1-7-21.1a82.7,82.7,0,0,1-4-26.1c0-15.6,4.3-32-1.9-46.3-1.8-4.3-4.8-8.4-8.9-10.6s-9.7-2.3-13.4.7l-16,14.5L99.1,48l21.5-13.2L127.2,48,125,76.1l-9.7,20.1" fill="#e7f94d"/><path d="M59.3,61a135.4,135.4,0,0,0-1.6,19.1c-.1,5.1.1,10.2,1.7,14.9,3.8,12,16.6,20.3,29.1,19,10.7-1.2,20-8.6,25.7-17.8s8.3-19.8,10.3-30.4,3.1-24.2-5-32.1L104.2,44.6c-6.7,4.8-13.4,9.6-20.9,12.7s-16,4.7-23.9,2.6" fill="#fff"/><path d="M59.5,61.9c-2.3,15.3-4.9,34.8,7.8,46.5a29.2,29.2,0,0,0,35.1,3.3c13.5-8.1,19.6-23.2,22.9-37.8,2.9-12.9,6.1-29.2-3.9-39.8a1.2,1.2,0,0,0-1.3-.2C103.4,45.9,83.2,65.3,60.8,60c-1.2-.3-1.8,1.7-.5,2,13.9,3.3,27-2.7,38.3-10.3,6.6-4.5,12.8-9.6,19.5-13.8,2.2-1.4,2.7-1.9,4.3.6a17,17,0,0,1,2.4,5.3A31.8,31.8,0,0,1,126.2,54c-.2,14.1-4.2,30.8-11.7,42.9s-23.2,21.5-38,15.1c-19.7-8.6-17.7-31.7-15.1-49.6.2-1.2-1.8-1.8-1.9-.5Z" fill="#fc00f6"/><path d="M121.2,18.5C112,4.4,93,2.4,78.6,9,61.1,17,52.9,35.6,45,51.9c-4.6,9.4-9.4,19-16.8,26.6s-17,11-23.4,18.8c-12.5,15.1,1.8,31.3,17.3,35.5,19.8,5.4,40.3-4.7,48.8-23.2.5-1.1-1.2-2.1-1.7-1-7.4,16.1-24.2,25.9-41.9,23.3-9-1.4-18.6-5.8-23.2-14.1-5.7-10.2.9-19.5,9.2-25.5,6.5-4.7,13.2-8.6,18.5-14.7s8.7-12.3,12.1-18.9c7-13.9,12.7-29.2,24.2-40.2,13.8-13,39.7-17,51.4,1,.7,1.1,2.4.1,1.7-1Z" fill="#fc00f6"/><path d="M100,112.3c-4.8,16.2-7.9,37.5,7,49.7,11.4,9.3,29.2,7,39.4-2.9,12.3-11.9,13.2-30.1,8-45.4-3.9-11.1-7.9-21.4-8.6-33.3s1.2-21.2,1.3-31.9c.2-9.2-1.2-19.4-7.2-26.8s-13.2-8.7-19.9-4c-1.1.7-.1,2.4,1,1.7,8.7-6,17.5,1.7,20.9,9.6s3.5,17,3,25.6c-1,16.3-2.2,31.6,3.1,47.4,2.6,8,6.5,15.8,7.4,24.3a40.9,40.9,0,0,1-3.8,22.3c-6.6,13.4-22.6,21.1-37,15.5-20.8-8-17.8-34.3-12.7-51.3.4-1.2-1.5-1.7-1.9-.5Z" fill="#fc00f6"/><path d="M105.4,55.8a27,27,0,0,1,15.8,4.6c1.1.7,2.1-1.1,1-1.8a29.4,29.4,0,0,0-16.8-4.8c-1.3.1-1.3,2.1,0,2Z" fill="#fc00f6"/><path d="M70.8,68.7a3.6,3.6,0,0,1,3.5-.3L74,66.6a5,5,0,0,1-3.8.3l.4,1.7a2.8,2.8,0,0,1,3.3-.7l-.5-1.7A2.6,2.6,0,0,1,70,67l.2,1.6a4.2,4.2,0,0,1,4.4-.7l-.4-1.7a3.3,3.3,0,0,1-3.5.6l-.5,1.8a8.6,8.6,0,0,0,4.4-1c1.1-.6.1-2.4-1.1-1.7a6.2,6.2,0,0,1-3.3.7c-1,0-1.5,1.5-.5,1.9a5.5,5.5,0,0,0,5.9-.8,1.1,1.1,0,0,0-.4-1.7,6,6,0,0,0-6.4,1.2,1,1,0,0,0,.2,1.6,4.7,4.7,0,0,0,5.8-1.1,1,1,0,0,0-.4-1.7,4.8,4.8,0,0,0-5.2,1.2,1,1,0,0,0,.5,1.6,6.5,6.5,0,0,0,5.3-.5c.9-.4.6-1.5-.2-1.8a5.5,5.5,0,0,0-5.1.5c-1.1.6,0,2.4,1.1,1.7Z" fill="#fc00f6"/><path d="M111.1,70.9a3.3,3.3,0,0,1,3,1l.4-1.7a10.2,10.2,0,0,1-4.6-.2l.3,1.9a2.4,2.4,0,0,1,3,.9l.6-1.5a3.9,3.9,0,0,1-3.8-1.8l-.6,1.5a4.5,4.5,0,0,1,4.6,2.2c.7,1,2.4,0,1.8-1.1a7,7,0,0,0-6.9-3.1,1.1,1.1,0,0,0-.6,1.5,5.9,5.9,0,0,0,6.1,2.7,1,1,0,0,0,.6-1.4,4.7,4.7,0,0,0-5.9-1.7,1.1,1.1,0,0,0,.3,1.9,15.1,15.1,0,0,0,5.6.1,1,1,0,0,0,.5-1.6,5,5,0,0,0-4.9-1.5c-1.3.2-.7,2.1.5,1.9Z" fill="#fc00f6"/><path d="M90.4,59.9A86,86,0,0,1,86,81.1c-.4,1.2,1.5,1.7,1.9.5a85.6,85.6,0,0,0,4.5-21.7c.1-1.3-1.9-1.3-2,0Z" fill="#fc00f6"/><path d="M75,92.5c8.9,3.3,18,5.8,27.1,1.7,1.2-.5.2-2.2-1-1.7-8.5,3.8-17.3,1.1-25.6-2-1.2-.4-1.7,1.5-.5,2Z" fill="#fc00f6"/><path d="M59.8,82.5,61,83.6a2.9,2.9,0,0,1-1.7,2.5,5.5,5.5,0,0,1-2.5.7c-3.4.2-3.2-3.7-.7-5.1a4.1,4.1,0,0,1,5.9,3c.6,3.3-3.2,5.7-6,4.1s-2.3-7.2,1.4-8.2c5.3-1.4,8.3,5,3.7,8.1s-11.8,2.2-9.8-3.9,10.5-6.2,10.1.3c-.2,4.1-5.3,9-9.1,5.6S51,81.8,55,81a5.7,5.7,0,0,1,6.9,6.7c-.9,5-7.5,5.6-10.5,1.9s0-4.8,1.6-6.6,1.1-1.4,2.9-1.3,1.9.5,2.7,2.1a6.1,6.1,0,0,1,.9,3.5v1c-1.8,1.6-3.3,1.6-4.4.1s-1.3-4.5,1-2.8,1.5.8.8,1.8-.8-.6-.3-1.5l1.2,1.2.6-1.1,1.4-.7a5.9,5.9,0,0,1,1,2.9c-1.3,3.5-3.6.3-3.8-.7a3.1,3.1,0,0,1,2.1-4c3.8-.9,4,4.4.4,5.1s-7.3-3.6-3.4-5.9,10.5,5.9,3.9,8c-2.1.6-4.9,1.1-6.7-.6a5.2,5.2,0,0,1-1.1-5.8c1.7-3.6,7.5-3.6,9.2,0a5.4,5.4,0,0,1-6.8,7.4c-5.4-2.1-3.8-10.6,2-10.2s4.8,11.8-1.4,8.3c-1.9-1-3.6,1.9-1.7,3a7.3,7.3,0,0,0,11-5.4,8.3,8.3,0,0,0-7.9-9.3A8.6,8.6,0,0,0,48,87.5a8.7,8.7,0,0,0,10,7.8c11.2-1.4,8.7-19-2.5-17a8.3,8.3,0,0,0-6.9,9.8c1.2,5.5,6.3,7.4,11.3,6.1s8.7-5.9,5.4-11.3S56.4,77,52.8,81s-.7,9.9,4.1,11,10.2-2.8,8.5-7.9-7.7-5.3-10.6-1.5-.7,9.6,3.9,10.5,6.5-6.3,3.9-9.9-8,0-8.2,4.2,6.4,4.2,7.2,0-5-8-7.6-3.8.3,10.1,4.7,6.9,2.2-8.7-2.2-9.2-7.2,5.3-4.3,8.9,9.9,4.3,10.8-1.8c.5-4-2.7-11.3-7.6-10.9s-9.1,7.2-8,11.5,8.3,7.8,12.7,5.9,6.5-7.7,4.6-12.1a9.3,9.3,0,0,0-12.1-4.5C48,80.2,46.1,85.9,48,90.4c5.2,11.9,22.5-1.2,15.3-10.3S41,86.5,50.7,92.4c4.4,2.6,11.8.8,14.7-3.2A7.6,7.6,0,0,0,62,77.6c-4.2-1.6-9.8.3-11.2,4.8s1.5,9.6,6.1,10.3,9.5-4.1,8.4-8.9a7.6,7.6,0,0,0-11.7-4.5c-3.5,2.5-4.6,8.6.2,10.5s10.3-1,10.6-5.8-5.1-7.4-7.5-3.2c-1.2,1.9,1.8,3.6,2.9,1.7Z" fill="#231815"/><path d="M119.9,92l.3-.4-1.6.7h.5l-1-1,2.5-1v3c-1.6,1.6-2.5-2.4-2.2-3.3s4.4-4.4,5.4-1-3.5,4.9-5.8,3.6,0-6.3,3-6.2,4.8,1.8,5,4-2.6,4.6-5.2,4.5c-4.6-.2-7.3-6.7-2.9-9.4s8.8,1.8,6.4,5.9-11.8,4.8-10.5-1.4c.9-4.2,6.7-5.2,9.6-2.5a6.1,6.1,0,0,1,2,4.5c-.4,3.6-5.1,4.2-7.8,3.3-1.1-.3-3.3-1.7-3.6-3s.5-2.4.9-3.2a8.3,8.3,0,0,1,3.3-3.4c5.1-2.8,9.3,3.2,6.4,7.5s-6.4,3.9-8.9,1.1-1.5-8.9,3.4-9.1,8.8,8.7,2.9,10.3A9.1,9.1,0,0,1,116,95c-3.6-1.9-1.7-6,.5-8.1s5.1-3.1,7.3-.9a8.4,8.4,0,0,1,1.9,5.5c-.1,5.1-5.7,6.2-9.7,5.1-5.6-1.5-4.4-8.9-.5-11.6s8.2-1.3,10,2.3-2.3,9.4-7.1,8.2c-2.2-.5-4.4-2.2-3.8-4.7a4.3,4.3,0,0,1,2-2.9l1.3-.6c2.1-.8,3.4.3,4,3.2l-1.5-1.4-1,1.3,2.1,1.6.9-1.4-2.4-.7-.4.8c-1.8.4-1.1,3.2.7,2.8a3.2,3.2,0,0,0,2.5-4.3,1.5,1.5,0,0,0-2.4-.7,6.1,6.1,0,0,0-1.6,2.8c-.5,1.3,1,2,2,1.6a4,4,0,0,0,2.5-3.8,1.4,1.4,0,0,0-1.4-1.4c-2.9-.3-3.9,3.8-1.4,5.1s5.7-3,4.2-5.7c-4.3-8-18.4,1.9-11.2,9s18.2-.6,14.8-9.5c-1.5-4-6.1-6.2-10.2-5.6a10.5,10.5,0,0,0-8.6,8.4c-.9,4.3.9,8.5,5.3,9.8s9.6.8,12.3-2.8,1.7-9.4-1.3-12.4-9.1-1.7-12,1.6-4.5,8.3-.1,11.3,9.7,2.7,12.8-.6,1.3-9-1.6-11.7a8.3,8.3,0,0,0-11.3.3c-6.4,6.4,1.7,17,9.7,13.2a8.7,8.7,0,0,0,4.8-10.5,7.5,7.5,0,0,0-9.6-5,11.2,11.2,0,0,0-7.3,9.4c-.1,5.2,5.9,6.9,10.2,6.4s7.4-3,6.8-7.6a8.9,8.9,0,0,0-8.6-7.6c-4.2,0-8.3,3.1-8.6,7.4s3.5,6.9,7.6,6.7,8.6-2.4,9.3-6.9a7.5,7.5,0,0,0-6.3-8.4c-9.5-1.1-11.8,12.8-3,15.5,4,1.2,9.4-.8,10.3-5.2s-3-8-6.8-8.5-8.5,2.3-8.5,6.6,4.3,6.2,7.9,5.4,6.6-4.5,5-8.2-6.2-4-9-1.5-3.2,7.5.2,9.5,6.7.2,7-3.1-4.1-6.4-7.3-5-3,6.3.7,6.5,4.4-4,1.3-4.5a1.5,1.5,0,0,0-1.6.7l-.3.3c-1.1,1.5,1.4,2.9,2.4,1.5Z" fill="#231815"/><path d="M111.4,70.7c-.3.1-2.9-.4-1.5-.4a5.8,5.8,0,0,1,1.9.3,6.2,6.2,0,0,1,3.2,2.3c.8,1,2.5,0,1.7-1s-4.9-4.2-7.8-3.5-1.1,4.7,1.5,4,.6-4.6-1.3-3a1.8,1.8,0,0,0,.2,2.6,2.4,2.4,0,0,0,3.1.4c1.1-.6.1-2.4-1-1.7Z" fill="#fc00f6"/><path d="M73.2,68.4a3.1,3.1,0,0,1,1.9-.3l-.8-1c0,1.3-2.1-.2-2.4-.4v1.7a6.7,6.7,0,0,1,2-1.2c.5-.1,1.3,0,1.4.7l.7-1a11.7,11.7,0,0,1-4.5.9,1,1,0,0,0-.5,1.8,5.8,5.8,0,0,0,4.1.6c1-.2,2.6-.8,2.5-2.1s-1.7-2.1-2.8-2.4a6.2,6.2,0,0,0-4,.5c-1.1.5-.1,2.2,1.1,1.7a4.2,4.2,0,0,1,3.6.3v-.3l-.6.3h-.9a3.8,3.8,0,0,1-2.1-.4l-.5,1.9a12.4,12.4,0,0,0,5-1,1.1,1.1,0,0,0,.8-.9A2.9,2.9,0,0,0,75,65.3c-1.5-.4-3,.5-4.1,1.4a1,1,0,0,0,0,1.7,3.9,3.9,0,0,0,3.5,1.1,2.5,2.5,0,0,0,1.9-2.4c0-.4-.3-.9-.7-.9a5,5,0,0,0-3.4.5c-1.2.6-.1,2.3,1,1.7Z" fill="#fc00f6"/><path d="M108,71.8a25.2,25.2,0,0,0,3.9,1.2l-.3-1.9a2.1,2.1,0,0,1-2.6-.5l-1.2,1.5a8,8,0,0,0,6.5,1.1,1,1,0,1,0-.5-1.9,6.3,6.3,0,0,1-5-.9c-1-.6-1.9.8-1.2,1.6a4.3,4.3,0,0,0,5,.9,1.1,1.1,0,0,0-.2-1.9,19,19,0,0,1-3.9-1.1c-1.2-.4-1.7,1.5-.5,1.9Z" fill="#fc00f6"/></svg>