<svg id="圖層_1" data-name="圖層 1" xmlns="http://www.w3.org/2000/svg" viewBox="0 0 183.1 173.3"><title>profile</title><path d="M110.9,45.4c9.4-4.1,21.8-.8,28.8,5.9s9.4,15.8,9.7,24.7c.6,20.7-10.1,41.2-27.9,55.8-6.2,5.2-13.5,9.7-21.9,11.9-21.2,5.6-45.2-5.5-55.4-21.9S35.4,85.5,42.4,68C47.8,54.4,58,40.6,74.5,36.7c12.5-2.8,26.8,1.1,34.6,9.5" fill="#fff"/><path d="M48.4,127.5c-1.9,4.7-1.5,9.9-1.4,15s-.1,10.4-3,14.5-9.3,6.2-13.2,2.9c-1.6-1.3-2.5-3.3-3.6-5.1-7.1-11-24.8-15-26-28-.8-9.9,9.4-18.2,8.9-28.1-.3-6.4-4.8-11.6-7.4-17.4A31.4,31.4,0,0,1,8,47.7c2.9-3.2,6.5-5.8,9.5-9,5.4-6,8.3-13.8,13-20.4C43.4.2,70.9-5.5,89.9,6c8,4.8,14.8,14.8,10.4,23.1l1.4,17L95.2,43a38.2,38.2,0,0,0-27-2.6c-15.3,4.1-30.3,36.7-27.5,51S48.4,127.5,48.4,127.5Z" fill="#e7f94d"/><path d="M97.7,141.4c-6.4,3.3-18.5,9-16.9,15.9s9.6,12.2,16.4,9.9c3-1.1,5.5-3.3,8.2-5,7.1-4.1,15.7-3.9,23.8-4.8s17.1-3.9,20.5-11.3.6-14.4,2.2-21.5,8.3-13.8,13.8-19.9,10.6-14,8.5-21.9c-2.6-10-15.3-14.5-19-24.2-2.5-6.5-.3-13.9-1.3-20.8C152.2,26,140.6,17,128.7,16.4s-23.5,6.3-30.4,16L95,40.7l6.7,5.4s16.5-4.7,26.1,5.8,12.1,32.2,8,42.7C135.8,94.6,129.8,125.3,97.7,141.4Z" fill="#e7f94d"/><path d="M106.6,37.7c11.6-15.7,36.7-22.8,49.8-4.6,6.1,8.6,2.7,17.7,4.4,27.2,1.3,7.1,6.5,11.6,11.5,16.2,3,2.7,6,5.5,7.6,9.2,2.5,5.6.7,11.6-2.5,16.7-4.7,7.6-12.6,12.8-16.8,20.8s-.5,18.5-4.4,27.1-16.2,10.6-25.3,11.4c-4.6.4-9.4.8-13.9,2.3s-8.5,5.9-13.3,7.1c-6.4,1.7-13-3.1-14.5-9.3s2.7-13.5,8.3-16.9c1.1-.7.1-2.4-1-1.7-7.1,4.4-12.2,13.5-8.3,21.8s12,10.5,19.1,6.8,10-6.3,16.5-7.3,12.5-.9,18.6-2.3c8.4-2.1,15.8-7,17.1-16.1.8-6-.6-12.1,1.2-18s7.5-11.8,12.1-16.8c6.4-6.9,13.3-16.5,9-26.3-3.6-8.3-13-12.1-17.2-19.9-3.4-6.2-1.7-13.2-2.1-19.9a23.7,23.7,0,0,0-4.4-13.1c-13.9-19.6-40.7-12.4-53.2,4.6-.8,1,1,2,1.7,1Z" fill="#fc00f6"/><path d="M103.3,51.1c10.4-4.8,21.3,2.4,25.7,11.9s4,20.7,2.1,30.6c-3.4,18.2-14.7,37.5-31.1,46.9s-38,.7-47.7-15.2S44,85.8,51.1,67.9c3.7-9.3,9.6-18.7,18.8-23.3s23.4-1.9,30.8,7.2c.9,1,2.3-.5,1.5-1.5a28,28,0,0,0-25.5-9.9c-9.6,1.5-17,8.2-22.1,16.1-11.5,18-15.5,44.4-6.8,64.3,7.6,17.7,28.6,31.1,47.9,23.9s34.2-31.7,37.7-52.2c1.9-11.4,1.6-24.7-5-34.6S111.9,45,102.3,49.4c-1.1.5-.1,2.3,1,1.7Z" fill="#fc00f6"/><path d="M108.7,34.4c3.9-8.8-1.5-17.7-8.5-23S81.7,3.2,71.9,3.8a48.7,48.7,0,0,0-26.4,10c-10,7.7-13,19.9-21.3,28.9-4,4.4-9,7.7-12.3,12.6A33.6,33.6,0,0,0,6.7,69.2,31.6,31.6,0,0,0,8.6,85c2.4,6.2,7.6,11.6,8,18.4.5,10.7-10.6,18.5-8.7,29.5,1.4,8.5,9.6,13.2,16,17.8a45.1,45.1,0,0,1,7.1,6c2.2,2.2,3.4,5,5.3,7.4s6.7,3.9,10.6,2.4c13.1-5.2,6.5-23.9,9.9-34a1,1,0,1,0-1.9-.5c-3.2,9.3,2.6,25.2-6.7,31.6-3.9,2.6-8.2,2.1-11.1-1.8-1.1-1.5-1.8-3.2-3-4.7a43.9,43.9,0,0,0-7.8-7.1c-6.2-4.6-15-9.1-16.4-17.5s6.8-16.7,8.4-25.5S12.5,90.8,9.8,82.4A30.3,30.3,0,0,1,17.3,52c3.4-3.5,7.4-6.4,10.4-10.3s5.2-8.4,7.7-12.7c4.8-8.4,11.4-15.1,20.3-19.1A46.2,46.2,0,0,1,86.1,7.1c10.6,2.7,26.8,13.2,20.8,26.2-.5,1.2,1.2,2.2,1.8,1.1Z" fill="#fc00f6"/><path d="M53.9,77.3c4.9-8.8,16.8-7.6,21.9.3a17.1,17.1,0,0,1-2.2,20.9,14.4,14.4,0,0,1-20.1.4c-7.7-7.1-3.3-17.2,2.1-24.2.8-1-.6-2.4-1.4-1.4-6.1,7.8-10.7,19.1-2.1,27a16.4,16.4,0,0,0,23.8-1.4c6.2-7.3,6.1-18.5-.8-25.3s-18.2-5.9-22.9,2.7c-.6,1.1,1.1,2.2,1.7,1Z" fill="#fc00f6"/><path d="M106.1,110.8c-16.3-4.3-8.4-30.3,7.2-28.9,21.3,2.1,9.4,38.5-8.6,27.8-1.1-.7-2.1,1-1,1.7,19.6,11.6,33.9-25.8,12.1-31.1-19.3-4.7-29.8,27.3-10.2,32.4a1,1,0,1,0,.5-1.9Z" fill="#fc00f6"/><path d="M127,102.2a5.3,5.3,0,0,1,3.7-.5c1.3.2,1.8-1.7.5-2a7.9,7.9,0,0,0-5.2.7,1,1,0,0,0,1,1.8Z" fill="#fc00f6"/><path d="M132.3,100.8a7.4,7.4,0,0,1,10.8,2.6,11.4,11.4,0,0,1-.4,11.3c-4.1,7.2-12.8,8.9-19.7,4.8a1,1,0,0,0-1,1.8c9,5.3,21.2,1.4,24-9.2,2.2-8.6-5.9-19-14.7-13.1-1.1.8-.1,2.5,1,1.8Z" fill="#fc00f6"/><path d="M81.2,90.7,94.5,93c1.2.2,1.8-1.7.5-1.9L81.7,88.7c-1.2-.2-1.8,1.7-.5,2Z" fill="#fc00f6"/><path d="M88.6,77.5a208.3,208.3,0,0,1-8.2,34.7c-.4,1.2,1.5,1.7,1.9.5A206.2,206.2,0,0,0,90.6,78c.2-1.3-1.8-1.8-2-.5Z" fill="#fc00f6"/><path d="M61.6,60.4a37.6,37.6,0,0,1,21.8,4.5c1.2.6,2.2-1.2,1.1-1.8a40.7,40.7,0,0,0-22.9-4.7c-1.3.1-1.3,2.1,0,2Z" fill="#fc00f6"/><path d="M68.9,119.2a24.5,24.5,0,0,0,22.4,4.5,1,1,0,1,0-.5-1.9,22.9,22.9,0,0,1-20.5-4c-1-.8-2.5.6-1.4,1.4Z" fill="#fc00f6"/><path d="M44.7,114c-1.2,2.2,0,4.8-3.1,3s-3.4-4.4-.8-6,6.6-1.6,6.5,2l-1.6,2.4c-.5,2.4-1.9,3.1-4,2.3-6.4-1.8-4.6-10.6,1.7-10.6s7,5.7,4.7,9.5-9.1,4-9.5-1.3a6.6,6.6,0,0,1,6.9-6.9,5.7,5.7,0,0,1,5.4,5.1c.5,4.2-3.9,5.9-7.3,5.5s-5.7-2-6.6-4.9,3.5-8.9,7.9-7.6c5.9,1.9,6.4,9.7,1.4,12.9-8.3,5.5-12.3-8.1-6.1-12.9,4.1-3.3,10.8-1.8,11.9,3.8s-6.2,8.8-11.1,8.1c-7.1-1-6.8-8.9-1.6-12.2s9.2-1.5,11.4,2.9c5,9.6-9.3,17.1-14.4,8.1-3-5.5,4.3-12.2,9.5-12.1s9.4,6.7,6.9,11.5a8.8,8.8,0,0,1-14.1,1.8c-5.1-5.6.9-16.2,8.3-12.2,5.4,2.9,4.3,11.4-2.2,11.7-2.5.1-7.2-2.8-5.1-6.1h5.5l-.5,4.5c-1,1.6-3.7,1.9-5.3,1.9l1.3.9c-.3-2.2-.4-5.1,1-7.1l.5-1.1,6,1.4c.3.4-.1,2.1-.4,2.7-2.6,7.4-12,.4-7.3-4.5s10.5-.9,10.5,4.3-4.7,6.4-7.7,3.8-2-3.8-1.6-5.9,2.2-5.6,4.5-5.4,3.7,3.1,3.8,4.3-.7,2.7-1.4,3.7a9,9,0,0,1-4.2,3.3c-6,2-3.8-3.5-1.5-5.7s2.5-2.4,4.8-1,1.5.9,2.2,2.5.9,4.9-.2,5.7-4.3.7-5.2-.2-3.1-8.5-1-11.1,7.3-.3,7.6,3.4a10.5,10.5,0,0,1-2,6.6c-1.3,1.8-4.7,4.4-7.3,3.1s-3.1-4.3-3.1-5.8a10.9,10.9,0,0,1,1.2-4c2.1-4,6.9-6.6,11.2-3.9,6,3.8,2,10.8-3.4,12.6s-11.3-2.2-9.6-8.3a8.3,8.3,0,0,1,11-5c3.4,1.6,5.2,6.5,3.4,9.9A7.1,7.1,0,0,1,42,119.8c-5.4-3.9-2-13.3,4-14.6s9.5,3.8,9.2,8.4-5.5,8.8-10.3,8.4-6-4.5-3.6-7.8a9.7,9.7,0,0,1,2.3-2.2c2-1.8,3.4-1.2,4.1,1.8q4.3,4.7-.6,1.8l-.8-2-1.2,1,1.7,1.3.6-1.3-1.8-1.8-1,1.2,1.6.2a3.5,3.5,0,0,0-4.9-.1h1.9v.2c1.7.1,1.7-2.6,0-2.6a2.4,2.4,0,0,0-1.8,4.3,1.3,1.3,0,0,0,1.9,0h1.1a1.2,1.2,0,0,0,1.6.2c1.3-.8,1.4-.8,2-2.1s-.6-2.6-1.8-1.9a3.5,3.5,0,0,0-2,3.6c.1.9.8,1.6,1.7,1.3a3.9,3.9,0,0,0,2.8-2.2,1.4,1.4,0,0,0-.8-2,3.4,3.4,0,0,0-3.8,4.8c1.7,3.4,6.6,2,8.7-.2s1.8-7.6-2.2-9.2-9,.9-11.4,4.3-2.7,7.9,1,10.5,9.1,1.7,12.6-.8c7.8-5.5,6.3-17.4-3.3-19.7s-17.2,11.6-10,18.5,17.2,1,16.4-7.8-12.5-12.3-18.3-5.2a10.1,10.1,0,0,0-.9,11.5c2.7,4.4,8,5.2,12.5,3.4s7.9-5.2,7.8-9.8-3.9-8.1-8.2-8.8c-8.6-1.4-17.2,11.3-10.6,18.1s18.5-5.5,15-13.6c-1.4-3.4-5.5-5.7-9.1-4.1s-4.6,6.2-4.3,9.8,2.6,9.1,7,9.6,6.5-3.7,6.4-7.3-1.9-9.1-6.4-9-8.2,4.5-8.9,8.7,2.4,5.9,6.3,4.9,8.1-5,8.6-9.5c1.3-10.3-11.5-8.8-13.5-.5-.9,3.6.1,8.2,3.6,10.1s7.9.3,9.8-2.9c4.9-8.1-6.2-16.3-13.2-10.9s-.2,16.6,7.3,12.5,3.2-19.2-4.7-13.1c-3.8,2.9-4.5,8.2-3.9,12.6a1.3,1.3,0,0,0,1.3.9c4.2.2,8.9-2.3,9-7s-3.6-7.4-7.4-6.5-5,5.5-3.7,8.8,6.2,5.4,10.1,4.1c9.7-3.3,6-17.8-3.7-17.4-11.3.3-12.8,15.7-3.3,20.1s19.7-6.1,14.3-15.2a10.3,10.3,0,0,0-12.4-4.6c-4.4,1.5-9.4,6.3-9.4,11.2,0,9.6,13.8,12.4,19.3,5.8s-.5-19.7-10.1-17.8-13.6,17-1.7,18.7c4.4.7,9.5-.3,12.4-3.8a9.3,9.3,0,0,0-1.1-12.7c-8.6-8-20.2,3.3-16.8,13s19.6,4.1,17.5-6.2-18.9-9.5-18.3,1.7,17.7,12.6,19.5,2.4-13.9-12.5-17.5-3.3c-4.2,10.7,13.1,14,15.4,3.2,2-9.1-9.5-15.1-15.3-7.3s6.9,17.6,12.7,9.8-10-15.9-11.9-5,16.6,8.2,12.4-.2a4,4,0,0,0-7,0c-.8,1.5,1.5,2.9,2.3,1.4Z" fill="#231815"/><path d="M44.3,114.5c.2.6,0,1.3-.6,1.3s-.5-.8,0-.4l-.6-1.2a3.6,3.6,0,0,1-.9,2.6c-.4.5-.9.6-1-.3s2.3-1.1,3.1-.6l-.4-1.9-.8,1.2s-.8.8-.6.7H41.1c.6.4,2,1.3,1.9,2.1s-1.6-.6-1.9-1.1-1.5-3.6-3.5-2.8-.9,6.3,2.3,4.5c1.6-.8.2-3.1-1.3-2.3l.3.2-1.4-.3c1.1,1.1,1.4,2.7,2.6,3.8a3.8,3.8,0,0,0,3.8.9c3-1.1,1.7-4.7-.1-6.3s-2.1-1.7-3.2-.7a2.4,2.4,0,0,0-.3,2.9,2.6,2.6,0,0,0,2.9,1.4c1.4-.3,2.3-1.6,3-2.8a1.5,1.5,0,0,0-.5-1.9,5.7,5.7,0,0,0-5.4-.2,3.7,3.7,0,0,0-1.6,4.3,3.1,3.1,0,0,0,3.5,2.3c2.1-.5,3.4-2.9,3.5-4.9.4-4.4-7.3-1.9-4.7,2a3.2,3.2,0,0,0,4.4,1c1.7-1,1.9-3.1,1.2-4.8s-3-.3-2.3,1.3Z" fill="#231815"/><path d="M108.5,125.8a5,5,0,0,1,5.7.1l-.5-1.9a7.6,7.6,0,0,1-3,3.6l-2.7.4c-1.4-3.3-.6-4.8,2.4-4.7l2,.2c2,0,2.7,1.4,2.1,4.1-1,.9-4.8,1.1-5.9.5v-5.3a6,6,0,0,1,3.5.1,5.6,5.6,0,0,1,3.6,5.3c-.1,4.1-4.8,6.4-8.3,4.5-6.7-3.5.5-14.6,6.8-8.7,9.3,8.5-12.1,17.9-12,6.3,0-8.2,12.5-10.5,16.6-4.1s-5.1,14.2-10.9,8.9c-3.8-3.4-3.8-12.1,2-13.6,9.4-2.4,14.5,15.9,2.1,14.9a12,12,0,0,1-8.1-3.9c-3.2-3.9.1-7.6,3.8-9.4,8.1-4.1,14.1,7.3,6.4,11.4-5.9,3.1-12-1.9-11.7-8.1.5-10,13.3-7.8,14.9.4,1.2,5.8-4.7,10.6-10.2,9.5-8.1-1.5-1.6-13.4,3.7-14.4,3.4-.6,7.6,1.3,7.5,5.2s-4.5,6.9-8.1,7.1-9.4-4.2-5.3-8.4c2.6-2.7,8.2-3.7,11.5-1.7s3.6,4.4,1.5,6.8-3.8,2.2-5.7,2.3c-3.5.2-8.6-2-6-6.5s7.1-5.9,10.5-4.9c6.2,1.8,2.7,9.2-1.7,10.4a8.6,8.6,0,0,1-4.5-.1c-4.3-1.8-2.2-6-.8-8.7s1.9-3.6,3.9-4,5.1,1.6,5.5,3.9c.9,4.4-4.3,8.2-8.3,7.3s-3.7-5.1-1.4-7.1,3.9-1.6,5.4.5c-1.8,3.7-2.2,4.2-1.1,1.7l-1.2-2-1.7,1.4,1.5.6-.2-1.9c.4-1.6-2.2-2.4-2.6-.7a4.7,4.7,0,0,0,.5,4,1.4,1.4,0,0,0,1.5.6,7.8,7.8,0,0,0,3.4-2.6,1.3,1.3,0,0,0-1.2-2,6.4,6.4,0,0,0-4.7,2.1,1.2,1.2,0,0,0-.4,1.3c1.2,4,7.2,4.6,8.9.7s-4.3-9.1-8.5-6.8-5.4,10.3.1,12.4,12.2-2.1,12.8-7.8-5-9.9-9.9-7.9-9.1,11.4-5.3,15.7,12,2.4,14.8-2.2.1-11.1-5.5-11.6-13.8,4.5-13.2,10.5,7.6,7.2,12.1,6,9.1-7.3,4.7-12.1-13.6-3.5-17.3,1.3-.3,10.9,5.1,12,13.4-3.1,13.6-9.6-6.2-9-11.4-7.6-10.3,9.1-9,14.8,10,5.5,14.1,3.1a10.4,10.4,0,0,0,4.4-13.6c-2.5-5.6-9.9-9.3-15.4-5.4s-5,11.1-1.6,15.6a10.5,10.5,0,0,0,14.9,1.8,9.5,9.5,0,0,0,.4-14.1c-4.8-4.5-12.5-1.7-16,3s.6,11.2,5.9,13.3,13.5,1,14.8-6.1-4.1-12.6-10.2-13.2c-12.9-1.2-11.9,22.1,1.7,20.8,6.1-.6,10.5-6.3,8.6-12.3s-9.8-9-15.9-6.3-9,8.9-5.3,14.1,11.8,4.1,15.6-.7,2.5-11.9-3.6-14.2-10.1,1.7-10.8,7,3.9,9.6,9.3,8.8a7.9,7.9,0,0,0,6-11.5c-2.4-4.8-10.8-6.5-13.6-1.1s5.8,8.4,10,7.3c5.7-1.5,6.1-7.9.3-9.4-2.8-.8-6.2-1-8.6,1s-2.6,4.1-1.3,6.2c3.2,5.6,9.6.7,11.6-3a1.2,1.2,0,0,0-.5-1.8,7.2,7.2,0,0,0-8.3-.1c-1.5,1-.1,3.3,1.3,2.3Z" fill="#231815"/><path d="M61.3,87.1c.6-.3,1.7-.9,2.1-.1V85.8a2.1,2.1,0,0,1-2.6-.1l.2,1.6a1.3,1.3,0,0,1,1.8,0c.4.3,1.1,0,1.4-.4s0-1-.4-1.4a3.3,3.3,0,0,0-4.2.4,1.1,1.1,0,0,0,.2,1.6,4.1,4.1,0,0,0,5-.3.9.9,0,0,0,.2-1.2c-1-1.9-3.2-1.4-4.8-.6s-.1,2.3,1,1.7Z" fill="#fc00f6"/><path d="M110.7,97.8a2.3,2.3,0,0,1,1.5,1.2l.6-1.5a1,1,0,0,1-1.3-.9l-.7,1.3c.2-.1.1,0,0-.1a1.1,1.1,0,0,0,1.4,0,1,1,0,0,0,0-1.4,1.9,1.9,0,0,0-1.9-.5,1.1,1.1,0,0,0-.7,1.3,3.1,3.1,0,0,0,3.7,2.3,1,1,0,0,0,.6-1.5,4.2,4.2,0,0,0-2.6-2.1c-1.3-.3-1.8,1.6-.6,1.9Z" fill="#fc00f6"/><path d="M109,128.7h.7a1.4,1.4,0,0,0,.7-2.5l-.5-.9-2,.8h.7l1.3.9-.8.4-.9-1.7v-1.3a1.3,1.3,0,0,0-1.5-2l-1.3.5,1.6,1,1.2-2.6-1.5-2a8.5,8.5,0,0,1-2.4,2.6l2.2,1.3.7-1.4-2.1-1.6-1.1,1.5,2.1,1.6a9.4,9.4,0,0,1,7.1-3.8l-.4-2.6a10.1,10.1,0,0,1-3.9.8l1.1,2c1.6-2,5.6-.2,7,1.1a7.9,7.9,0,0,1,2.5,7.1,9.4,9.4,0,0,1-3.6,6.2c-2,1.5-6.8,4.5-8.7,1.5-1-1.4-3.3-.1-2.3,1.4,5.3,8,16.9-2.8,17.4-9.5a10.6,10.6,0,0,0-5.5-10c-3-1.7-6.9-2-9.1.9a1.3,1.3,0,0,0,1.2,2,14.6,14.6,0,0,0,4.6-1c1.4-.4,1.3-2.7-.3-2.6a12.2,12.2,0,0,0-9.4,5.2c-.9,1.2,1.1,2.7,2.1,1.6a14.9,14.9,0,0,0,1.5-2c.8-1.3-1.1-2.8-2.1-1.7a3.5,3.5,0,0,0-1.3,2.6,1.3,1.3,0,0,0,2.2,1.3,13.8,13.8,0,0,0,2.8-3.1,1.4,1.4,0,0,0-1.5-2,4.3,4.3,0,0,0-3.1,5.9,1.3,1.3,0,0,0,1.7.9l1.3-.5-1.5-2c-2.5,4.4,4.4,7.3,5,3.4a1.4,1.4,0,0,0-1-1.6c-2-.7-2.9,1.2-2.5,3a1.4,1.4,0,0,0,1.3.9c3.5-.1,2.6-3.5.6-4.9a1.2,1.2,0,0,0-1.9.8,3.2,3.2,0,0,0,1.7,4l.7-2.5H109c-1.7-.1-1.7,2.6,0,2.7Z" fill="#231815"/></svg>