<svg id="圖層_1" data-name="圖層 1" xmlns="http://www.w3.org/2000/svg" viewBox="0 0 180.9 153.4"><title>profile</title><path d="M59.2,58.8A68.6,68.6,0,0,1,79,23.4c1.5-1.4,3.4-2.9,5.5-2.7s3,1.2,4.6,1.6,4.3-.6,6.5-1.3c11.3-3.7,24,3.5,30.4,14.6s7.4,25.1,5.7,38.1c-1.4,11.1-4.8,22.2-11.2,30.8S104.3,119.2,94.2,119c-12-.3-22.9-9.4-28.7-21.1S58.4,72.3,59.2,59" fill="#fff"/><path d="M67,100.3C48.7,73.6,69.7,37,79.9,28.3c1.6-1.4,3.6-2.8,5.8-2.6s3.1,1.2,4.8,1.5a6,6,0,0,0,1.9,0L95.5,5.3C86.9,1.4,76.3,2.7,68,6.9S53.3,18.2,48.3,25.7C34.6,46.2,30.2,71,16.4,91.4,10.1,100.7,1.7,109.6.2,120.5-1.5,133,7.5,145.8,20,150.7s27.8,2.7,39-4.6,18.4-19,21.3-31.3c-6.1-3.7-9.8-10.1-14.5-15.4" fill="#e7f94d"/><path d="M179,99.5c-3.9-12-12.9-21.2-19.4-31.8s-11-23.3-16.6-34.9-13.2-22.9-24.2-29S92.7-1.4,84.9,8.5l7,19.1c9.1-2.8,19.8,1.8,26.7,10s11.1,22.2,11.8,34.6c.6,10.7-.5,21.6-4.8,30.8a41.4,41.4,0,0,1-4.1,6.7l.4,1c1.9,8.8,5.6,17.4,11.7,23.9s14.8,10.6,23.3,9.6c11.7-1.4,20.9-12.4,23.3-24.4A41.1,41.1,0,0,0,179,99.5Z" fill="#e7f94d"/><path d="M65.9,64.7a64.2,64.2,0,0,1,9.3-21.5,58.7,58.7,0,0,1,7.5-9c2.5-2.4,4.2-3.2,7.9-2.5,1.3.3,2,.8,3.4.7,3.1-.1,5.9-1.9,9.1-2A20.8,20.8,0,0,1,114.3,33c7.2,3.8,12.1,10.7,14.6,18.3,5,15,2.8,33.9-4.4,47.8s-24.3,24.5-39.7,15S65,82.5,65.9,64.6c.1-1.3-1.9-1.3-2,0C63,82.2,66,102.2,80.7,113.7s30.7,6.4,40.9-6.5,14.2-34.8,10.6-51.6c-3.1-14.2-15-29.6-31.2-27-3.1.5-5.1,1.7-8.3,1.2s-4-1.2-6-.8c-3.7.9-6.9,5.2-9.2,7.9A65.5,65.5,0,0,0,64,64.2a1,1,0,1,0,1.9.5Z" fill="#fc00f6"/><path d="M97.4,9.7C81.3,2.6,65.7,13.1,56.7,26.1c-11.5,16.7-15.8,37-24.4,55.2-7,14.6-23.3,29-19.7,46.7,3.2,16.1,19.1,25.6,34.8,23.9C67,149.6,80.3,133,84.5,114.7c.3-1.3-1.7-1.8-1.9-.6-3.7,16.1-14.2,30.8-30.8,34.9s-34.5-4.8-37.4-22.3S26.7,97.1,33.2,83.8s11.2-30,18.2-44.4c7.9-16.3,24.3-37.1,45-28,1.1.5,2.2-1.2,1-1.7Z" fill="#fc00f6"/><path d="M99.4,11c13.6-10.7,32-2.3,40.9,10.2S151.8,50.1,155.8,65a114,114,0,0,0,7.4,20.5c3.5,7.4,7.6,14.5,9.6,22.5,3.9,16-3.8,35.5-20.8,40.2-9,2.4-18.2-1.2-24.5-7.8s-9.6-17.9-10.1-27.9c-.1-1.3-2.1-1.3-2,0,.7,16.2,8.3,34.6,26,38,14.9,3,28.6-8.8,32.8-22.5,6.2-20.3-7.7-36.4-13.9-54.7S153.1,34.7,141.2,19C131.3,5.9,112.1-1.5,98,9.6c-1,.8.4,2.2,1.4,1.4Z" fill="#fc00f6"/><path d="M135.8,70.3c3.7-3.5,7.7,1.4,7.7,5a14,14,0,0,1-2.5,7.4,17.8,17.8,0,0,1-10.8,7.8c-1.3.3-.7,2.2.5,1.9,7.5-2,14.3-8.3,14.8-16.4.3-5.8-5.8-12.2-11.1-7.1a1,1,0,0,0,1.4,1.4Z" fill="#fc00f6"/><path d="M96,61.7a85.2,85.2,0,0,1,.7,25.2c-.2,1.3,1.8,1.3,2,0A88.5,88.5,0,0,0,98,61.2c-.3-1.3-2.2-.8-2,.5Z" fill="#fc00f6"/><path d="M75.2,70.3a9.2,9.2,0,0,1,3-1.8c.6-.1,3.7-.6,3.1.5s-3,.7-3.7.8l-4,.7,1.1,1.4A5.7,5.7,0,0,1,81.8,69c1.2.5,1.8-1.5.6-1.9A7.7,7.7,0,0,0,73,70.9a1.1,1.1,0,0,0,1.1,1.5l4.4-.7c1.2-.2,2.5-.3,3.6-.6a2.1,2.1,0,0,0,1.2-3.2c-2.2-3.4-7.3-1-9.5,1a1,1,0,0,0,1.4,1.4Z" fill="#fc00f6"/><path d="M121.3,67c-2.5-1.4-5.4-2.9-8.2-2a4.9,4.9,0,0,0-3.6,4.8,1.1,1.1,0,0,0,1,1l9.1-.6c1.3-.1,1.3-2.1,0-2l-9.1.6,1,1a3.3,3.3,0,0,1,3.5-3.1c1.9,0,3.7,1.1,5.2,2s2.2-1.1,1.1-1.7Z" fill="#fc00f6"/><path d="M115.3,68.7l3.8-1.1a1,1,0,1,0-.5-1.9l-3.9,1.1a1,1,0,0,0,.6,1.9Z" fill="#fc00f6"/><path d="M114.3,68.2l-.7-.7c-.9-.9-2.4.5-1.4,1.4l.7.7a1,1,0,0,0,1.4-1.4Z" fill="#fc00f6"/><path d="M105,50.9a19.1,19.1,0,0,1,14.4-2.1,1,1,0,0,0,.5-1.9A20.6,20.6,0,0,0,104,49.2c-1.1.6-.1,2.4,1,1.7Z" fill="#fc00f6"/><path d="M85.5,97.8A42,42,0,0,0,115,94.1c1.1-.6.1-2.4-1-1.8a39.5,39.5,0,0,1-28,3.5c-1.2-.3-1.7,1.7-.5,2Z" fill="#fc00f6"/><path d="M66.8,86.2l1.5-.9c2.1.4,2.8,1.7,2,4a6.6,6.6,0,0,1-2.5,3.2c-2.7,1.9-7.4,1-6.3-3.3s4.9-4.2,7.7-3.5,3.7,4.4,2,6.8C66.1,99.9,57.6,88,65.5,86c3.6-1,6.2,3.2,4.6,6.3s-5,3.7-7.6,2.4-3.6-6-1.1-8.4a7.1,7.1,0,0,1,8-.8c7.4,3.8,1.1,15.3-5.5,10.3-2.9-2.1-3.1-7.1-.4-9.5s9.9-.3,10.4,4.2-5.4,9.4-10,6.9S58.4,88,63,84.8s10.5-.5,10.9,4.9-7.3,8.9-11.1,4.7S61.4,83.9,67,83.8a5.4,5.4,0,0,1,5.3,4.3c.6,3-1.5,5.2-4,6.5a14,14,0,0,1-6.5,1.9c-3.8-.2-5.4-3.8-4.3-7,2.1-5.8,12.4-9.3,13.9-1.4a8,8,0,0,1-10.1,9.3c-4.4-1.3-3.5-5.7-.7-8.5s5-3,7.6-1.4,1.9,6.6-1.2,8.2-6,1.2-6.2-2c-.1-1.7,1.4-3.3,2.5-4.3l1.5-1.1c1-.3,1.2-.7.5-1.4-.4,2.8-2.7,5.8-4.6,7.8l2.9,1.2a9.2,9.2,0,0,1,3.9-7.6l-2.7-.4c1.9,2.6.6,6.9-2.9,7.4l1.7,1.2c-.3-1.3-.2-6.2,1.7-6.6s1.5,2.9-.3,1.9c3-2.3,3.9-1.4,2.7,2.5l-1.6,1.3c-2.2-1.6-2.4-3.2-.8-4.6,3.6-.4,4.9.5,4,2.8s-5.3,4.8-7.9,2.6-2.6-6.3-.2-8.4c5.3-4.8,12.5,1.5,10.3,7.7s-12.7,4.7-13.2-2c-.2-2.9,1-5.9,3.7-7.2s8.2-.2,9,3.9c1.5,7.9-14.1,10.4-12.1,1.8.8-3.7,4.9-6.9,8.6-4.6s.9,8.1-3,8.9-6.3-.1-5.4-3.5c.3-1.5,2.3-4.4,3.7-4.9,6.8-2.5,2.3,12.2-.9,8.1-1.3-1.8-4.2-.1-2.9,1.7,3.8,5,9.6.7,10.4-4.3.4-2.5.4-6.1-1.7-8.1s-5.4-1.3-7.6.4c-4.3,3.4-7.9,11.7-.5,13.7s14.2-2.3,13.2-9.5S64.6,81.8,59.9,85,53,96.5,58.5,99.9s12.5.4,15-4.4-.9-12-6.7-13c-13.4-2.2-16.4,18.9-3,20.6a10,10,0,0,0,11.5-9.9,9.7,9.7,0,0,0-11.2-10,8.9,8.9,0,0,0-7.5,11.7c1.8,5.4,7.9,7.9,12.7,4.5s5.8-12.2-1-13.1c-5.3-.7-10.4,7.5-6.5,11.6s13.4-3.6,9.8-8.6-14.1,1.3-10.5,6.2S71,92.3,68.8,88c-1.3-2.5-4-2.2-5.9-.5s-3.2,6.5-2.6,9.9a1.5,1.5,0,0,0,1.6,1.2c5.8-.6,9.4-7.4,5.8-12.4a1.7,1.7,0,0,0-2.6-.3,12,12,0,0,0-4.9,10,1.7,1.7,0,0,0,2.9,1.2c2-2.2,7.8-9,5-12.2s-8.3,2.8-9.6,5-.9,8.3,3.3,9.6,8.6-1,10.7-4.5a7.4,7.4,0,0,0-3-10.6c-4.2-2.3-9.1-.5-12,2.9S53,95.7,57.1,99s9.8,2.7,13.6-.3c7.6-5.9,4-22-7-18.4-4.5,1.5-9,4.8-9.8,9.7s1.9,9.1,6.6,9.8c8.9,1.2,21.4-9.3,12.2-17.3S54.2,86.2,58.9,94.7s19.3,4.8,18.3-5.5S62.1,77.2,57.5,86,64,105.8,72.7,99.8s4.6-18.1-5.5-18.2-12.3,12-5.3,17c9.1,6.5,19.5-6.8,11.5-14.4a10.9,10.9,0,0,0-13.2-1.3C56.4,85.5,55,91.2,57.7,95c6.1,8.6,20.7.4,15.1-9s-18.6.5-12.5,8.7,19.7-.8,14.2-9.4-21.4,0-15.4,9,20-3.7,13.2-10.7a5.4,5.4,0,0,0-8.5.9c-1,2,1.9,3.7,3,1.7Z" fill="#231815"/><path d="M128.5,90.5c.6,2.3-1.7,5.5-4.3,4.1a3.6,3.6,0,0,1-1.3-4.4c.8-1.6,3.5-2.3,5.1-2.3,3.8.1,3.9,4,1.3,5.8-1,.7-3.4,1.4-4.5.5s.7-4.7,2.2-5.8,4.7-2.2,5.7.5a5.9,5.9,0,0,1-1,5.3c-2,2.7-6.2,2.6-8.4.1s-.4-7.6,2.9-8.8c7.2-2.7,10.7,9.8,2.6,11.8s-11.5-10-3.8-12.7,12.4,8.2,5.2,11.6c-4,1.9-10-1-7.1-6,1.4-2.5,5.1-4.4,8-3.5s3.1,6.5-.1,8.3-11.9.4-8.8-4.7c2.1-3.5,9.1-5.8,10.5-.4.8,2.8-1.8,6-4.9,4.3s-3.5-5-1.8-6.8c3.2-3.4,7.6.7,5.9,4.6a3.5,3.5,0,0,1-1.8,2c-2.3,1.1-4-.5-3.1-2.8a6.5,6.5,0,0,1,1.7-2l1.2-1c3.1,1.6,2.8,3-1.1,4l2.6.3-.3-1.9-3.4.4v.4l1.7-.5c-1.5-.4-1.8-1.2-1.1-2.4s.3-1.6,1.4-1.5,3.3,1.7,2.9,3.5-4,3.5-6.2,2.3c-4.6-2.6-2.6-9,2-10s8.4,3.9,7.3,8.2c-1.5,5.8-8,6.8-12.7,4.5-1.9-1-3.6,2-1.7,2.9,7.2,3.6,17.4.8,18-8.3s-8-13.7-14.9-9.3-5.1,13.5,1.9,15.6,13.8-6.6,7.5-11.7c-2.7-2.2-7.4-1.5-9,1.8a5.6,5.6,0,0,0,3.7,7.7,1.9,1.9,0,0,0,1.6-.4,3.9,3.9,0,0,0,1-3.7c-.3-1.9-3.3-1.4-3.3.5a7.3,7.3,0,0,0,.8,3.6,1.7,1.7,0,0,0,2.7.4c1.7-2.1,1.5-5.9-1.6-6.7s-4.8,2.9-4,5.4,5.4,3.6,7.7,1.6,2.8-7.2.1-9.5c-5.7-4.6-14.5,8.1-7.6,12s13.5-8.5,7.3-13.2a7.7,7.7,0,0,0-9.1.3c-2.9,2.5-2.6,6.7-.7,9.8s6,5,9.4,2.9a7.4,7.4,0,0,0,3.1-9.1c-3.9-8.7-15.6-4.4-17.8,3.2-1.3,4.7,3.3,7.1,7.3,7.8s8.1-.5,10.3-3.8c5-7.3-2.5-14.2-9.9-11.4s-9.6,14.8.1,16.3a9.8,9.8,0,0,0,9.7-14.9c-4.2-6.8-15.2-5.4-17.7,2.1a10,10,0,0,0,13.1,12.7c7.4-2.7,8.2-12.6,1.7-16.9s-15.5,2.4-13.5,10,13.5,8.4,16.5,1c1.4-3.4.8-8.1-2.5-10.1s-8.2,1.1-10.5,3.7-3.1,6.3-.3,8.7,6.9,1.6,9.4-.4,4.5-6.5,2.1-9.5-7.8-2.4-10.9-.8c-6.7,3.5-2.9,14.9,4.6,12.2a6.9,6.9,0,0,0,4.2-8.4c-.5-2.1-3.8-1.2-3.2.9Z" fill="#231815"/><path d="M119.9,69.2a.5.5,0,0,1,.5,0h.1c.2.1.1.1-.1-.1s.1-.9-.1-.6,0,1.1.4,1.4a1.3,1.3,0,0,0,1.4-.4,1.4,1.4,0,0,0-.6-2,2.6,2.6,0,0,0-2.1-.2,1,1,0,0,0-.7,1.2.9.9,0,0,0,1.2.7Z" fill="#fc00f6"/><path d="M80.9,68.1l1.4.9a1,1,0,0,0,1-1.8l-1.4-.8c-1.2-.6-2.2,1.1-1,1.7Z" fill="#fc00f6"/><path d="M82,70.7h1.5a1,1,0,0,0,0-2H82a1,1,0,0,0,0,2Z" fill="#fc00f6"/><path d="M114,68.1h.3l.2-1.8-.7-.3-.9,1.5a10.7,10.7,0,0,1,5,1l.2-1.8a2.9,2.9,0,0,1-1.3.1v2h2.1c1.1,0,1.4-1.8.3-2l-1.3-.2v1.9a1.9,1.9,0,0,1,2.1.7l.4-1.7h-.2c-1.3-.1-1.8,1.8-.6,2a2.8,2.8,0,0,0,1.3-.1,1,1,0,0,0,.5-1.7,3.8,3.8,0,0,0-4-1.2,1,1,0,0,0,0,1.9l1.3.3.2-2h-2.1a1,1,0,0,0,0,2,5.5,5.5,0,0,0,1.8-.2,1,1,0,0,0,.3-1.8,12.5,12.5,0,0,0-6-1.3c-.6,0-1.3.9-.8,1.5a2.8,2.8,0,0,0,2.9,1.2c1-.1.9-1.4.3-1.8a2,2,0,0,0-3,.6c-.7,1.1,1,2.1,1.7,1Z" fill="#fc00f6"/><path d="M77.1,71l2.4-.4-.8-1.8H77.3v1.8a7.9,7.9,0,0,1,3.3-1l-.5-1.9a4.1,4.1,0,0,1-2.4.4l.5,1.9a2,2,0,0,1,1.5-.6l-.9-1.7a3.5,3.5,0,0,1-1.6.8l.9,1.7A3.5,3.5,0,0,1,80.8,69a2.9,2.9,0,0,1,1.6.4,3,3,0,0,1-1.6.5l-5.6.7-1.6.2c.4.4.8.2,1.1-.4a10,10,0,0,1,2.1-1,8.3,8.3,0,0,1,5.6.2c1.2.4,1.8-1.6.6-2-3.4-1.1-7.9-.7-10.5,2a2,2,0,0,0-.4,2.8c1.1,1.1,3.8.1,5.1-.1s9.6-.2,7.4-3.7-6.1-1.7-7.9.3a1,1,0,0,0,1,1.6,5,5,0,0,0,2.5-1.3c.8-.7-.1-1.8-1-1.7a4.6,4.6,0,0,0-2,.9,1,1,0,0,0,.5,1.8,5.1,5.1,0,0,0,3.4-.7c.8-.4.5-1.9-.5-1.8a10.6,10.6,0,0,0-4.3,1.2,1.1,1.1,0,0,0,0,1.8,3,3,0,0,0,3.4-.2,1,1,0,0,0-.8-1.8l-2.3.4c-1.3.2-.7,2.2.5,1.9Z" fill="#fc00f6"/><path d="M73.8,70.9a5.5,5.5,0,0,1,4.5-2c1.2.1,1.2-1.9,0-2a7.5,7.5,0,0,0-6.2,3c-.8,1,.9,2,1.7,1Z" fill="#fc00f6"/></svg>