<svg id="圖層_1" data-name="圖層 1" xmlns="http://www.w3.org/2000/svg" viewBox="0 0 143 135.4"><title>profile</title><path d="M28.9,118.5c-10.6-2.1-19.4-10.2-24.1-20S-.7,77.5.5,66.8C3.2,42.1,17.7,18,40.3,7.7,50.4,3.1,61.5,1.3,72.5.4S96.6-.2,108,3.3s22.1,10.8,27.9,21.2c3.3,6,4.9,12.7,5.9,19.5,3.2,21.1.1,45.1-15.6,59.6-6.5,6.1-15.7,11.9-15.1,20.8a18.4,18.4,0,0,1-8.6-9.8" fill="#e7f94d"/><path d="M22.4,123.3,16.8,86.7l4.8-22.1s73.3-2.7,84.2-13-5.7,49.4-5.7,49.4l.8,9.3,1.7,8.5-5.5-2.3" fill="#fff"/><polygon points="21.6 122.3 31.6 125.7 42.9 132.4 54.8 134.3 74.2 131.1 88.8 122.2 96.4 112.6 21.6 122.3" fill="#fff"/><path d="M19.7,72.4c-3.1,15.8-5.6,33.2,4.8,46.9a41.3,41.3,0,0,0,36.4,15.9c14.3-1.4,27.4-10,34.9-22.1,9.7-15.5,11.7-35.6,12.6-53.4a1.1,1.1,0,0,0-1.3-1,414.9,414.9,0,0,1-88,12.4,1,1,0,0,0,0,2,426.1,426.1,0,0,0,88.5-12.4l-1.2-1c-1.4,29.2-8.3,67.1-42.7,73.1A39.4,39.4,0,0,1,26.8,119c-10.7-13.3-8.2-30.5-5.2-46,.2-1.3-1.7-1.8-1.9-.6Z" fill="#fc00f6"/><path d="M18.7,87.1A11.7,11.7,0,0,0,4.4,97.9C4,106.4,11.3,112,19.3,112c1.3-.1,1.3-2.1,0-2C13,110,6.7,106,6.4,99.3A9.7,9.7,0,0,1,18.1,89c1.3.2,1.8-1.7.6-1.9Z" fill="#fc00f6"/><path d="M107.3,81.4c2-.9,5.1.2,6.3,2a8.3,8.3,0,0,1,.9,4.4,14.1,14.1,0,0,1-2.9,7.3,16.5,16.5,0,0,1-10.7,6.3c-1.2.3-.7,2.2.6,2,7.1-1.3,13.7-6.8,14.8-14.2s-3.7-12.5-10-9.5c-1.2.6-.2,2.3,1,1.7Z" fill="#fc00f6"/><path d="M27.1,118.2C3.2,112.9-.9,84.6,3.9,64.5S21.5,27.2,40.4,19.9c10.3-4,21.5-5.2,32.4-5.5s23.2,1.1,33.3,6.7c19.2,10.5,23.4,33.6,21,53.8-1.4,11.3-5.7,22.4-14.1,30.3-5.8,5.4-13.9,10.3-13.8,19.2l1.5-.9a17.6,17.6,0,0,1-7.4-8.3c-.5-1.2-2.2-.2-1.7,1a18.4,18.4,0,0,0,8.1,9.1,1,1,0,0,0,1.5-.9c-.1-6.3,4.7-10.4,9.1-14.2a64.3,64.3,0,0,0,9.9-10.3c5.7-8.2,8.4-18.1,9.2-27.9,1.6-20.7-3.4-42.7-23-53-10.3-5.4-22.1-6.9-33.6-6.6S49,14,38.2,18.6C19.5,26.5,6.7,44.5,2,64c-5.1,21.1-.4,50.6,24.6,56.1,1.2.3,1.7-1.7.5-1.9Z" fill="#fc00f6"/><path d="M30.2,88.6c-.1.1-.6-.4-.6-.5s.4-.5.4-.4-.4-.4-.4-.5l.2,1c.1-.5.4-.8.9-.7l-.7-1a2.3,2.3,0,0,1-.2,1.2h-.1V88h0l.3-.2.3-.2a1.1,1.1,0,0,1,.8.2V86.5a3.2,3.2,0,0,1-1.7,1.1,1,1,0,0,0,.6,2,5.3,5.3,0,0,0,2.5-1.7,1.1,1.1,0,0,0,0-1.4,2.6,2.6,0,0,0-2.9-.6,2.3,2.3,0,0,0-1.8,2.4,1.9,1.9,0,0,0,2.5,1.3c1.3-.4,1.6-1.9,1.6-3.1a1,1,0,0,0-.7-.9,2.7,2.7,0,0,0-2.8.8,2.5,2.5,0,0,0-.6,1.4c-.1.7.5,1.2,1,1.5a1.7,1.7,0,0,0,2.6-.6c.3-.9-.2-2.2-1.3-2.1a1.2,1.2,0,0,0-1,1c0,.5.5,1.1,1,1Z" fill="#fc00f6"/><path d="M88.3,81.9a.5.5,0,0,1,.7.1l-.2-1.2a1.2,1.2,0,0,1-1.7.3l.5.6a.6.6,0,0,1,1.2-.4v-.7a1.2,1.2,0,0,1-1.9.3l.3.9a1.3,1.3,0,0,1,1.7-.3l-.5-1.1a1.6,1.6,0,0,1-.7,1.1h-.4c-.1-.1-.2-.1-.2-.2a.1.1,0,0,0-.1.1c.1,0-.1.1,0,.1s-.2-.6-.1-.5h-.8a1,1,0,1,0-.5,1.9c1.3.2,3.3-.2,3.2-2s-2-1.9-3.1-1.1-.4,3.1,1,3.5,3.1-1,3.6-2.5-.1-.8-.4-1.1a3.1,3.1,0,0,0-4.6,1.5c-.2.3,0,.7.2,1a3.2,3.2,0,0,0,4.4.1,1.6,1.6,0,0,0,.4-2.3,2.9,2.9,0,0,0-2.3-1.2A2.3,2.3,0,0,0,86,80.2a2.1,2.1,0,0,0,.1,2.7,3.2,3.2,0,0,0,4.4-1.1.9.9,0,0,0-.1-1.2,2.5,2.5,0,0,0-3.8.3c-.7,1.1,1,2.1,1.7,1Z" fill="#fc00f6"/><path d="M55.2,71.8A246.8,246.8,0,0,0,53.4,99a1,1,0,0,0,2,0,246.8,246.8,0,0,1,1.8-27.2c.1-1.3-1.9-1.3-2,0Z" fill="#fc00f6"/><path d="M45.4,112.5a35.3,35.3,0,0,0,34.4-7.9,1,1,0,0,0-1.4-1.4A32.9,32.9,0,0,1,46,110.5a1,1,0,0,0-.6,2Z" fill="#fc00f6"/><path d="M24.7,110.2c2.7-3.7,7.2,0,8.6,2.8s-.8,7.7-4,9.6-6.6,1.9-8.9-.6-1.5-7.9,1.3-10.6,8.1-3.9,10.2.6a7.8,7.8,0,0,1-.6,7.1c-1.6,2.6-4.9,4.2-7.6,2.4s-1.8-6.4-.8-9.4l-3.4-.9-1.4,10.1a1.8,1.8,0,0,0,3.4,1l3.1-8.5-3.3-.9-1.1,7,3.3.9a42.4,42.4,0,0,1,2.5-9.1l-3.4-.5a31.7,31.7,0,0,1-1.5,9.7l3.4.9c1.1-3.8,2.4-7.5,3.8-11.2l-3.3-.9-2.7,11.6,3.4.9a70.2,70.2,0,0,1,3.8-12.6l-3.4-.5a79.6,79.6,0,0,1-2.4,11.8l3.4.5a24.4,24.4,0,0,1,4-11.1l-3.2-1.4A46.5,46.5,0,0,1,25,120l3.3,1a89.3,89.3,0,0,1,3.9-9.7l-3.3-.8a24.2,24.2,0,0,1-2.1,8.3l3.1,1.3a23.3,23.3,0,0,1,3-7.7L29.7,111l-2.5,10.1a1.8,1.8,0,0,0,3.4.9l3.5-8.7H30.8a9.9,9.9,0,0,1-1.3,6.5l3.2,1.3a15.8,15.8,0,0,1,2.4-5.3h-3l-.7,2.2c-1.9,1.1-.2,4.1,1.7,3a5,5,0,0,0,2-6.9,1.7,1.7,0,0,0-3,0,19.9,19.9,0,0,0-2.8,6.1,1.7,1.7,0,0,0,3.2,1.3,13.1,13.1,0,0,0,1.6-9.1c-.3-1.9-2.8-1.4-3.3,0l-3.6,8.7,3.4.9,2.5-10c.4-1.9-2.2-3.1-3.2-1.4a26.5,26.5,0,0,0-3.3,8.6c-.4,1.8,2.3,3.2,3.2,1.3a29,29,0,0,0,2.6-10c.1-1.7-2.5-2.4-3.2-.9A102.8,102.8,0,0,0,25,120c-.8,2.2,2.5,3,3.3,1a43.5,43.5,0,0,0,3-11.1c.2-1.9-2.1-3.1-3.2-1.4a29.8,29.8,0,0,0-4.5,12.9c-.2,2,2.9,2.2,3.4.4a75.2,75.2,0,0,0,2.6-12.7c.3-2.1-2.7-2-3.4-.4a68.1,68.1,0,0,0-3.9,12.6c-.4,2.2,2.9,3.1,3.4.9l2.6-11.6a1.7,1.7,0,0,0-3.3-.9c-1.4,3.7-2.7,7.4-3.9,11.2-.7,2.1,2.7,3,3.4.9a34.9,34.9,0,0,0,1.6-10.6,1.7,1.7,0,0,0-3.4-.4,39.5,39.5,0,0,0-2.5,9.1c-.4,2.2,3,3.1,3.3.9l1.1-7a1.7,1.7,0,0,0-3.3-.9l-3.2,8.4,3.4,1,1.4-10.2c.3-2.1-2.7-3.1-3.4-.9-1.2,3.9-2.3,8.9.9,12.3s7.1,2.8,10.3,1c6.7-3.9,7.3-15.7-.5-18.7S12.7,114,16.3,121.9s16.3,5.3,20.1-2.1c2.3-4.7.4-9.8-3.7-12.8s-8.3-2.2-11,1.4c-1.3,1.9,1.7,3.6,3,1.8Z" fill="#231815"/><path d="M91.4,104.1a7,7,0,0,1,10.2-3.1,7.8,7.8,0,0,1,1.3,11.2c-2.6,2.9-7.2,4-10.6,1.9-5.4-3.3-2.2-9.5,1.6-12.7L91.4,99a17.4,17.4,0,0,0-4.4,8.9c-.3,1.6,1.6,3.1,2.9,1.7a8.9,8.9,0,0,0,2-3.7c.6-2.2-2.7-3.1-3.4-.9l-1.8,5.7c-.5,1.6,1.8,3.1,2.9,1.7a33,33,0,0,0,5.9-10.5c.8-2.2-2.5-2.9-3.3-.9l-3.8,9c-.8,1.8,2.2,3,3.2,1.3l4.3-7.6-3.1-1.3-4,9.9c-.7,1.8,2.3,3.1,3.2,1.4l5.1-10.6-3.2-.8a17.1,17.1,0,0,1-2.6,9.4l3,1.8,4.6-10.8-3.2-1.3a54.4,54.4,0,0,1-3.6,11l3.1,1.3,4.7-13.3-3.4-.5A44.9,44.9,0,0,1,93.4,112l3.1,1.4a38,38,0,0,1,4.5-9.8l-3.1-1.4a28.5,28.5,0,0,1-3,9.5l3,1.8a55.1,55.1,0,0,1,5.9-10.6l-3.2-1.3A29.4,29.4,0,0,1,96.2,113l3,1.8a76,76,0,0,1,5.1-9.8l-2.8.4c.5.5-3.1,7-3.4,7.7l3.1,1.3a44.1,44.1,0,0,1,4.9-9.4l-3.3-.9a10.8,10.8,0,0,1-3,8.5l2.9,1.6a16.7,16.7,0,0,1,3.3-5l-2.7-2.1-2.5,4.2c-1.2,2,1.7,3.5,3,1.8l2.4-3.2-3.2-.8-1.8,2.2c-2.1.8-1.2,4.1.9,3.4a6,6,0,0,0,4.3-5.6c.2-2-2.3-2.1-3.2-.9l-2.4,3.1,3,1.8,2.5-4.2a1.7,1.7,0,0,0-2.7-2.1,18.9,18.9,0,0,0-4.3,6.5c-.6,1.7,1.8,2.9,2.9,1.7a13.9,13.9,0,0,0,4.1-10.9,1.7,1.7,0,0,0-3.2-.9,43.3,43.3,0,0,0-5.2,10.3c-.7,1.8,2.3,3.1,3.2,1.3s5.7-8.5,2.9-11.9a1.7,1.7,0,0,0-2.7.4,68.9,68.9,0,0,0-5.1,9.7c-.9,2,1.8,3.7,3,1.8a32.4,32.4,0,0,0,4.7-12.3,1.7,1.7,0,0,0-3.1-1.3,54.3,54.3,0,0,0-5.9,10.5c-.9,2,1.9,3.8,3,1.8a31.8,31.8,0,0,0,3.3-10.3,1.8,1.8,0,0,0-3.2-1.4,39.8,39.8,0,0,0-4.8,10.7c-.5,1.8,2.4,3.1,3.2,1.3a44.4,44.4,0,0,0,3.5-13.9c.2-2-2.8-2.2-3.4-.4l-4.6,13.3c-.7,1.8,2.3,3.1,3.1,1.3a55,55,0,0,0,4.1-11.8c.4-1.8-2.4-3.2-3.2-1.3l-4.6,10.7c-.9,2,1.8,3.8,3,1.8a21.3,21.3,0,0,0,3.1-11.2c-.1-1.7-2.5-2.5-3.3-.9L89,111.9l3.2,1.4,3.9-10c.7-1.9-2.2-3-3.2-1.4l-4.3,7.7,3.1,1.3,3.8-9-3.3-.9a28.7,28.7,0,0,1-5.1,9l2.9,1.7,1.9-5.8-3.4-.9-1.1,2.1,2.9,1.7a13.9,13.9,0,0,1,3.6-7.4A1.7,1.7,0,0,0,91.4,99c-5.2,4.4-8.2,12.5-1.9,17.4s13,2.4,16.7-2.8a11.3,11.3,0,0,0-3.5-16c-5.5-3.2-12.3,0-14.6,5.5-.9,2.1,2.5,3,3.3,1Z" fill="#231815"/></svg>